<?xml version="1.0" encoding="utf-8"?>
<!-- Generator: Adobe Illustrator 16.0.0, SVG Export Plug-In . SVG Version: 6.00 Build 0)  -->
<!DOCTYPE svg PUBLIC "-//W3C//DTD SVG 1.1//EN" "http://www.w3.org/Graphics/SVG/1.1/DTD/svg11.dtd">
<svg version="1.1" id="Calque_1" xmlns="http://www.w3.org/2000/svg" xmlns:xlink="http://www.w3.org/1999/xlink" x="0px" y="0px"
	 width="140px" height="140px" viewBox="0 0 140 140" enable-background="new 0 0 140 140" xml:space="preserve">
<g>
	<defs>
		<rect id="SVGID_1_" x="19.948" width="100.104" height="140"/>
	</defs>
	<clipPath id="SVGID_2_">
		<use xlink:href="#SVGID_1_"  overflow="visible"/>
	</clipPath>
	<path clip-path="url(#SVGID_2_)" fill="#006935" d="M71.44,4.448h0.448h0.446V0.175C66.594,0.175,60.81,0,56.594,0
		c0,0-1.427,0.181-2.826,0.658L33.856,8.449c-0.771,0.301-1.234,1.091-1.121,1.911c0.014,0.104,1.428,8.36,0.578,19.516
		c-0.754,9.921-3.485,22.431-12.201,25.675c-0.851,0.316-1.33,1.222-1.113,2.105c0.081,0.325,11.115,50.377,7.521,80.439
		c-0.1,0.837,0.396,1.63,1.192,1.905h49.968l-0.091-2.915h-0.001H31.238h-0.001c2.863-26.602-5.942-72.133-7.421-78.806
		c16.339-8.016,13.482-39.542,12.638-47.003l16.51-6.461c3.783,6.35,5.292,8.194,14.866,19.479c0,0,2.422,1.997,3.902-0.025
		c0.007-0.009,0.018-0.021,0.016-0.032c-0.312-3.22-2.783-4.991-2.783-4.991C62.926,13.766,57.194,4.51,57.194,4.51L71.44,4.448"/>
	<path clip-path="url(#SVGID_2_)" fill="#006935" d="M68.56,4.448L68.56,4.448L82.806,4.51c0,0-5.731,9.256-11.771,14.737
		c0,0-3.125,2.825-2.783,4.991c0.002,0.012,0.007,0.023,0.014,0.032c1.483,2.022,3.903,0.025,3.903,0.025
		c9.574-11.285,11.084-13.13,14.866-19.479l16.51,6.461c-0.844,7.461-3.699,38.987,12.639,47.003
		c-1.479,6.673-10.284,52.204-7.421,78.806h-0.001h-47.35l-0.092,2.915h49.967c0.796-0.275,1.292-1.068,1.192-1.905
		c-3.595-30.062,7.439-80.114,7.521-80.439c0.218-0.884-0.263-1.789-1.113-2.105c-8.716-3.244-11.446-15.754-12.201-25.675
		c-0.848-11.155,0.565-19.411,0.578-19.516c0.115-0.82-0.349-1.61-1.12-1.911L86.232,0.658C84.834,0.181,83.405,0,83.405,0
		c-4.214,0-9.998,0.175-15.741,0.175v4.273h0.447H68.56"/>
	<path clip-path="url(#SVGID_2_)" fill="#006935" d="M69.784,33.197l0.006-1.575l-1.414-0.686c-0.31,0.647-0.09,1.292,0.133,1.567
		c-0.181-0.226-1.192-1.225-2.262-2.282C48.156,12.32,45.953,7.267,45.953,4.175l2.916-0.52c0,4.938,14.748,19.53,19.595,24.325
		c0.768,0.761,1.391,1.378,1.82,1.813c0.744,0.759,1.388,1.414,0.97,2.424L69.784,33.197z"/>
	<path clip-path="url(#SVGID_2_)" fill="#006935" d="M69.512,42.465l-0.042-3.151l0.02,1.575l-1.411-0.683
		c-0.302,0.635-0.095,1.267,0.118,1.538c-0.215-0.273-1.49-1.539-2.839-2.879c-21.048-20.9-23.886-27.197-23.886-30.601l2.973-0.511
		c0,5.57,17.456,23.237,23.133,28.875c0.95,0.942,1.722,1.71,2.254,2.253c0.928,0.949,1.54,1.576,1.131,2.592L69.512,42.465z"/>
	<path clip-path="url(#SVGID_2_)" fill="#006935" d="M70.656,33.197l-1.47-0.979c-0.418-1.01,0.226-1.665,0.972-2.424
		c0.428-0.436,1.05-1.053,1.817-1.813c4.849-4.795,19.596-19.388,19.596-24.325l2.254,1.022c0,5.51-9.479,15.499-19.632,25.544
		c-1.07,1.058-2.08,2.057-2.263,2.282c0.224-0.275,0.443-0.92,0.134-1.567l-1.413,0.677L70.656,33.197z"/>
	<path clip-path="url(#SVGID_2_)" fill="#006935" d="M70.93,42.465l-1.45-0.991c-0.411-1.016,0.203-1.643,1.13-2.592
		c0.533-0.543,1.305-1.311,2.255-2.253c5.677-5.638,22.954-22.794,22.954-28.364h3.151c0,6.064-12.073,18.871-23.885,30.6
		c-1.351,1.341-2.625,2.606-2.84,2.88c0.214-0.271,0.421-0.903,0.117-1.538l-1.411,0.673L70.93,42.465z"/>
	<path clip-path="url(#SVGID_2_)" fill="#006935" d="M68.1,41.64c0,0,2.012,2.515,4.263,0C74.612,39.126,65.795,39.065,68.1,41.64"
		/>
	<path clip-path="url(#SVGID_2_)" fill="#006935" d="M68.1,32.04c0,0,2.012,2.793,4.263,0C74.612,29.247,65.795,29.18,68.1,32.04"/>
	<rect x="67.556" y="39.417" clip-path="url(#SVGID_2_)" fill="#006935" width="5.073" height="1.171"/>
</g>
</svg>
