<?xml version="1.0" encoding="utf-8"?>
<!-- Generator: Adobe Illustrator 16.0.0, SVG Export Plug-In . SVG Version: 6.00 Build 0)  -->
<!DOCTYPE svg PUBLIC "-//W3C//DTD SVG 1.1//EN" "http://www.w3.org/Graphics/SVG/1.1/DTD/svg11.dtd">
<svg version="1.1" id="Calque_1" xmlns="http://www.w3.org/2000/svg" xmlns:xlink="http://www.w3.org/1999/xlink" x="0px" y="0px"
	 width="140px" height="140px" viewBox="0 0 140 140" enable-background="new 0 0 140 140" xml:space="preserve">
<g>
	<defs>
		<rect id="SVGID_1_" x="9.307" width="121.387" height="140"/>
	</defs>
	<clipPath id="SVGID_2_">
		<use xlink:href="#SVGID_1_"  overflow="visible"/>
	</clipPath>
	<path clip-path="url(#SVGID_2_)" fill="#006935" d="M60.915,113.346c-1.314,0-2.382,1.069-2.382,2.382
		c0,1.313,1.068,2.383,2.382,2.383c1.315,0,2.385-1.069,2.385-2.383C63.3,114.416,62.23,113.346,60.915,113.346"/>
	<path clip-path="url(#SVGID_2_)" fill="#006935" d="M60.915,90.212c-1.314,0-2.382,1.069-2.382,2.384
		c0,1.313,1.068,2.382,2.382,2.382c1.315,0,2.385-1.068,2.385-2.382C63.3,91.282,62.23,90.212,60.915,90.212"/>
	<path clip-path="url(#SVGID_2_)" fill="#006935" d="M60.915,67.081c-1.314,0-2.382,1.069-2.382,2.382
		c0,1.315,1.068,2.384,2.382,2.384c1.315,0,2.385-1.069,2.385-2.384C63.3,68.15,62.23,67.081,60.915,67.081"/>
	<path clip-path="url(#SVGID_2_)" fill="#006935" d="M130.092,40.368l-26.1-27.886c-1.712-1.825-4.859-3.526-7.297-3.95L93.02,7.849
		l-9.207-7.361c-0.006-0.003-0.011-0.006-0.017-0.01c-0.089-0.069-0.182-0.132-0.282-0.188c-0.014-0.008-0.029-0.015-0.042-0.023
		c-0.097-0.052-0.199-0.099-0.307-0.138c-0.124-0.042-0.231-0.067-0.337-0.088c-0.021-0.004-0.04-0.006-0.06-0.011
		c-0.111-0.018-0.222-0.026-0.331-0.028C82.43,0.001,82.425,0,82.419,0H57.583c-0.004,0-0.01,0.001-0.016,0.001
		c-0.112,0-0.223,0.011-0.337,0.028c-0.019,0.004-0.035,0.006-0.053,0.01c-0.108,0.021-0.216,0.047-0.323,0.083
		c-0.125,0.045-0.227,0.092-0.324,0.144c-0.015,0.008-0.027,0.015-0.042,0.023c-0.101,0.056-0.193,0.12-0.283,0.188
		c-0.006,0.004-0.011,0.007-0.018,0.01l-9.207,7.361l-3.65,0.678c-2.464,0.429-5.611,2.13-7.321,3.955L9.91,40.368
		c-0.388,0.412-0.603,0.959-0.603,1.526v38.938c0,1.232,1,2.234,2.233,2.234h16.272c1.233,0,2.234-1.002,2.234-2.234V52.44
		l7.645-8.054l-3.063,89.225c-0.035,1,0.602,1.902,1.558,2.206C36.726,135.987,49.624,140,70,140
		c20.377,0,33.274-4.013,33.814-4.183c0.955-0.304,1.592-1.206,1.558-2.206l-3.064-89.227l7.647,8.056v28.392
		c0,1.232,1,2.234,2.232,2.234h16.272c1.235,0,2.235-1.002,2.235-2.234V41.894C130.695,41.327,130.48,40.779,130.092,40.368
		 M81.838,21.565l3.894,8.071L72.235,49.383V38.533l11.26-32.578l5.975,4.776l-2.637,7.629h-2.981c-0.77,0-1.481,0.396-1.892,1.048
		C81.551,20.058,81.506,20.874,81.838,21.565 M58.041,19.407c-0.408-0.65-1.123-1.046-1.893-1.046h-2.98l-2.639-7.631l5.975-4.774
		l11.263,32.578v10.852L54.269,29.636l3.893-8.071C58.495,20.874,58.45,20.058,58.041,19.407 M70,31.32L60.718,4.468h18.563
		L70,31.32z M40.799,84.124h7.59v13.222c0,2.054-1.67,3.724-3.724,3.724h-4.448L40.799,84.124z M99.784,101.069h-4.447
		c-2.054,0-3.724-1.67-3.724-3.724V84.124h7.59L99.784,101.069z M126.225,78.598h-11.804V41.894c0-1.235-0.999-2.235-2.234-2.235
		c-1.232,0-2.232,1-2.232,2.235v4.057l-8.461-8.914c-0.64-0.673-1.629-0.881-2.484-0.522c-0.855,0.36-1.399,1.21-1.369,2.138
		l1.407,41.003h-9.669c-1.234,0-2.234,1-2.234,2.233v15.458c0,4.517,3.675,8.192,8.191,8.192h4.602l0.909,26.467
		c-4.019,1.041-15.246,3.526-30.847,3.526c-15.601,0-26.83-2.485-30.845-3.526l0.908-26.469h4.603c4.517,0,8.192-3.674,8.192-8.191
		V81.888c0-1.233-1.001-2.233-2.234-2.233h-9.673l1.408-41.004c0.033-0.926-0.511-1.777-1.368-2.137
		c-0.856-0.358-1.844-0.15-2.484,0.522l-8.461,8.914v-4.057c0-1.235-0.999-2.235-2.234-2.235c-1.232,0-2.233,1-2.233,2.235v36.705
		H13.773V42.776l25.498-27.241c1.034-1.104,3.333-2.346,4.852-2.61l2.291-0.427l3.052,8.828c0.311,0.9,1.159,1.504,2.111,1.504
		h1.014l-2.909,6.03c-0.347,0.72-0.283,1.571,0.169,2.23l17.916,26.212l-0.001,71.528c0,1.233,1,2.234,2.233,2.234
		c1.234,0,2.233-1.001,2.233-2.234l0.002-71.529L90.15,31.09c0.451-0.66,0.514-1.51,0.166-2.23l-2.906-6.03h1.015
		c0.952,0,1.799-0.604,2.11-1.504l3.052-8.828l2.318,0.433c1.491,0.258,3.79,1.5,4.824,2.605l25.496,27.24V78.598z"/>
</g>
</svg>
