<?xml version="1.0" encoding="utf-8"?>
<!-- Generator: Adobe Illustrator 16.0.0, SVG Export Plug-In . SVG Version: 6.00 Build 0)  -->
<!DOCTYPE svg PUBLIC "-//W3C//DTD SVG 1.1//EN" "http://www.w3.org/Graphics/SVG/1.1/DTD/svg11.dtd">
<svg version="1.1" id="Calque_1" xmlns="http://www.w3.org/2000/svg" xmlns:xlink="http://www.w3.org/1999/xlink" x="0px" y="0px"
	 width="140px" height="140px" viewBox="0 0 140 140" enable-background="new 0 0 140 140" xml:space="preserve">
<g>
	<defs>
		<rect id="SVGID_1_" y="3.43" width="140" height="133.14"/>
	</defs>
	<clipPath id="SVGID_2_">
		<use xlink:href="#SVGID_1_"  overflow="visible"/>
	</clipPath>
	<path clip-path="url(#SVGID_2_)" fill="#512178" d="M139.964,133.244l0.011-0.001c-9.93-50.381-23.997-95.787-25.043-99.139
		l-1.233-12.654v-0.004c-0.008-0.072-3.612-16.504-3.612-16.504c-0.195-0.882-0.978-1.512-1.882-1.512H31.798
		c-0.903,0-1.687,0.63-1.881,1.512c0,0-3.604,16.432-3.612,16.504v0.004l-1.233,12.656c-1.046,3.349-15.113,48.755-25.044,99.136
		l0.008,0.001c-0.183,0.933,0.338,1.879,1.262,2.19c0.235,0.083,3.415,1.136,7.395,1.136c3.262,0,7.062-0.707,10.224-3.235
		c3.312-2.651,8.617-3.039,11.443-3.041c-0.185,1.93-0.293,3.039-0.303,3.131c-0.087,0.891,0.449,1.724,1.297,2.01
		c0.235,0.083,3.415,1.136,7.396,1.136c3.262,0,7.062-0.707,10.223-3.235c3.355-2.684,8.51-3.048,11.163-3.041v0.549
		c0,3.317,4.15,5.724,9.866,5.724c5.718,0,9.868-2.406,9.868-5.724v-0.547c2.65-0.009,7.808,0.355,11.163,3.039
		c3.162,2.528,6.958,3.235,10.221,3.235c3.98,0,7.16-1.053,7.397-1.136c0.846-0.286,1.384-1.119,1.295-2.01
		c-0.009-0.092-0.119-1.201-0.303-3.132c2.826-0.005,8.118,0.38,11.445,3.042c3.16,2.528,6.959,3.235,10.221,3.235
		c3.98,0,7.16-1.056,7.396-1.136C139.629,135.123,140.147,134.176,139.964,133.244 M30.728,126.441
		c-2.391-0.026-6.62,0.191-10.438,1.731l11.464-67.385c0.176-1.048-0.529-2.044-1.576-2.22c-1.052-0.183-2.045,0.526-2.223,1.573
		l-12.009,70.603c-3.901,2.672-9.165,2.028-11.786,1.466c10.204-51.153,24.5-96.679,24.645-97.137
		c0.042-0.129,1.164-11.508,1.164-11.508h8.441C38.106,46.862,32.658,106.092,30.728,126.441 M60.135,126.441
		c-2.444-0.01-6.627,0.275-10.377,1.967l1.458-78.58c0.02-1.064-0.824-1.943-1.889-1.962c-1.06-0.033-1.94,0.826-1.961,1.89
		l-1.504,81.081c-3.973,2.62-9.285,1.901-11.814,1.337c1.126-11.657,7.875-82.479,8.214-108.61h17.874V126.441z M70.001,132.715
		c-3.913,0-5.916-1.429-6.015-1.873V23.563h12.032v107.268C75.918,131.287,73.916,132.715,70.001,132.715 M30.615,19.713
		L33.347,7.28h73.311l2.732,12.433H30.615z M94.142,130.839l-1.504-81.084c-0.021-1.051-0.879-1.89-1.926-1.89h-0.035
		c-1.064,0.02-1.911,0.898-1.89,1.962l1.458,78.58c-3.749-1.691-7.932-1.977-10.376-1.967V23.563h17.873
		c0.339,26.134,7.089,96.969,8.216,108.616C103.434,132.747,98.13,133.473,94.142,130.839 M124.058,130.743L112.047,60.14
		c-0.176-1.047-1.168-1.756-2.221-1.573c-1.047,0.176-1.753,1.172-1.575,2.22l11.464,67.385c-3.816-1.538-8.045-1.758-10.438-1.731
		c-1.932-20.349-7.379-79.579-7.683-102.877h8.442c0,0,1.122,11.379,1.163,11.508c0.145,0.458,14.438,45.974,24.646,97.137
		C133.224,132.774,127.96,133.415,124.058,130.743"/>
</g>
</svg>
