<?xml version="1.0" encoding="utf-8"?>
<!-- Generator: Adobe Illustrator 16.0.0, SVG Export Plug-In . SVG Version: 6.00 Build 0)  -->
<!DOCTYPE svg PUBLIC "-//W3C//DTD SVG 1.1//EN" "http://www.w3.org/Graphics/SVG/1.1/DTD/svg11.dtd">
<svg version="1.1" id="Calque_1" xmlns="http://www.w3.org/2000/svg" xmlns:xlink="http://www.w3.org/1999/xlink" x="0px" y="0px"
	 width="140px" height="140px" viewBox="0 0 140 140" enable-background="new 0 0 140 140" xml:space="preserve">
<g>
	<defs>
		<rect id="SVGID_1_" y="9.136" width="140" height="121.728"/>
	</defs>
	<clipPath id="SVGID_2_">
		<use xlink:href="#SVGID_1_"  overflow="visible"/>
	</clipPath>
	<path clip-path="url(#SVGID_2_)" fill="none" stroke="#006935" stroke-width="1.923" stroke-miterlimit="10" d="M18.261,129.699
		c0,0-0.362-16.063,0.363-20.773c0.845-4.832,7.609-52.299,8.333-55.922c0.725-3.624,3.141-10.75,7.126-16.305
		c3.986-5.557,9.542-12.562,11.958-14.615c1.449,0.604,20.775,6.039,45.776,0.12c2.656,2.537,10.749,13.528,12.804,16.668
		c2.052,3.141,5.434,9.059,7.245,20.896c1.812,11.836,6.28,41.427,6.885,46.379c0.604,4.952,1.329,5.677,0.604,23.673
		C74.546,130.061,18.261,129.699,18.261,129.699z"/>
	
		<circle clip-path="url(#SVGID_2_)" fill="none" stroke="#006935" stroke-width="1.923" stroke-miterlimit="10" cx="25.086" cy="123.358" r="2.838"/>
	
		<circle clip-path="url(#SVGID_2_)" fill="none" stroke="#006935" stroke-width="1.923" stroke-miterlimit="10" cx="113.223" cy="123.358" r="2.838"/>
	<path clip-path="url(#SVGID_2_)" fill="none" stroke="#006935" stroke-width="1.923" stroke-miterlimit="10" d="M46.041,22.083
		c0,0-0.24-4.228,1.208-4.228c1.147-0.422,4.59-1.933,4.107,5.314"/>
	<path clip-path="url(#SVGID_2_)" fill="none" stroke="#006935" stroke-width="1.923" stroke-miterlimit="10" d="M51.174,22.868
		c0,0-0.483-3.26,2.537-3.141c3.02,0.121,5.978-0.542,5.013,4.71"/>
	<path clip-path="url(#SVGID_2_)" fill="none" stroke="#006935" stroke-width="1.923" stroke-miterlimit="10" d="M58.481,24.196
		c0,0-0.181-3.804,3.745-3.624c3.925,0.182,4.892-0.725,4.71,4.59"/>
	<path clip-path="url(#SVGID_2_)" fill="none" stroke="#006935" stroke-width="1.923" stroke-miterlimit="10" d="M66.816,24.377
		c0,0-0.362-3.744,2.415-3.744c2.778,0,4.046-1.026,4.107,4.409"/>
	<path clip-path="url(#SVGID_2_)" fill="none" stroke="#006935" stroke-width="1.923" stroke-miterlimit="10" d="M73.338,24.679
		c0,0-0.906-4.228,1.751-4.348c2.657-0.12,3.503,0.061,3.685,4.287"/>
	<path clip-path="url(#SVGID_2_)" fill="none" stroke="#006935" stroke-width="1.923" stroke-miterlimit="10" d="M78.954,24.136
		c0,0-1.146-3.866,2.113-4.289c3.261-0.422,6.522-1.75,6.885,0.182c0.362,1.993,0.362,3.322,0.362,3.322"/>
	<path clip-path="url(#SVGID_2_)" fill="none" stroke="#006935" stroke-width="1.923" stroke-miterlimit="10" d="M88.133,20.875
		c0,0,0.303-2.597,1.691-2.899c1.39-0.302,1.994-0.423,1.994,4.228"/>
	<path clip-path="url(#SVGID_2_)" fill="none" stroke="#006935" stroke-width="0.641" stroke-miterlimit="10" d="M91.656,20.713
		c0,0,5.878-4.267,7.892-8.776c0.805-1.933,4.751-5.396,4.67,2.254c-0.081,7.73-0.483,13.931-2.899,19.97"/>
	<path clip-path="url(#SVGID_2_)" fill="none" stroke="#006935" stroke-width="0.641" stroke-miterlimit="10" d="M91.898,21.117
		c0,0,3.381-0.886,3.06-5.637c-0.323-4.75,0.081-5.958,3.221-4.268c3.14,1.852,7.891,9.985,1.933,21.016"/>
	<path clip-path="url(#SVGID_2_)" fill="none" stroke="#006935" stroke-width="0.641" stroke-miterlimit="10" d="M45.92,20.069
		c0,0-5.233-7.891-10.709-4.267c-0.886,1.691-4.832,2.657-3.543,25.042"/>
	<path clip-path="url(#SVGID_2_)" fill="none" stroke="#006935" stroke-width="0.641" stroke-miterlimit="10" d="M45.438,19.506
		c0,0-4.106-1.771-6.683-3.946c-2.577-2.173-5.315-5.394-8.052-1.449c-1.933,2.979-0.081,18.439,0.885,26.411"/>
	<path clip-path="url(#SVGID_2_)" fill="none" stroke="#006935" stroke-width="0.641" stroke-miterlimit="10" d="M22.569,80.944
		c0,0-10.871,14.654-19.245,30.679c-2.093,4.025-5.716,12.479,0.323,16.345c2.899,1.771,6.441,2.658,10.87-2.415
		c1.61-1.853,6.119-2.416,7.166-2.577"/>
	<path clip-path="url(#SVGID_2_)" fill="none" stroke="#006935" stroke-width="0.641" stroke-miterlimit="10" d="M18.141,126.035
		c0,0-9.743,0.403-10.629-11.676c-0.564-4.751,2.416-18.519,15.3-36.153"/>
	<path clip-path="url(#SVGID_2_)" fill="none" stroke="#006935" stroke-width="0.641" stroke-miterlimit="10" d="M118.63,103.086
		c0.241-0.081,3.946,7.568,14.333,14.494c5.395,3.784,10.146,7.327,2.658,10.95c-3.14,0.725-12.884,0.886-16.104-0.967
		c-3.221-1.851-3.703-2.333-3.703-2.333"/>
	<path clip-path="url(#SVGID_2_)" fill="none" stroke="#006935" stroke-width="0.641" stroke-miterlimit="10" d="M119.354,125.552
		c0,0,5.478-0.563,12.481,2.495c1.691,0.402,14.494-0.322,3.302-10.144c-11.273-9.744-16.588-18.763-18.68-26.25"/>
</g>
</svg>
