<?xml version="1.0" encoding="utf-8"?>
<!-- Generator: Adobe Illustrator 16.0.0, SVG Export Plug-In . SVG Version: 6.00 Build 0)  -->
<!DOCTYPE svg PUBLIC "-//W3C//DTD SVG 1.1//EN" "http://www.w3.org/Graphics/SVG/1.1/DTD/svg11.dtd">
<svg version="1.1" id="Calque_1" xmlns="http://www.w3.org/2000/svg" xmlns:xlink="http://www.w3.org/1999/xlink" x="0px" y="0px"
	 width="140px" height="140px" viewBox="0 0 140 140" enable-background="new 0 0 140 140" xml:space="preserve">
<g>
	<defs>
		<rect id="SVGID_1_" x="11.666" width="116.668" height="140"/>
	</defs>
	<clipPath id="SVGID_2_">
		<use xlink:href="#SVGID_1_"  overflow="visible"/>
	</clipPath>
	<path clip-path="url(#SVGID_2_)" fill="#006935" d="M128.334,40.831c0-15.12-11.506-27.553-26.241-29.021L87.503-0.001h-0.004
		H52.498L37.907,11.81c-14.736,1.468-26.242,13.901-26.242,29.021l2.734,75.833h17.5V140h76.199v-23.336h17.502L128.334,40.831z
		 M94.914,13.504L77.915,23.918l-4.023-7.357l13.343-9.273L94.914,13.504z M79.107,5.832l-9.105,6.329l-9.109-6.329H79.107z
		 M52.768,7.288l13.343,9.273l-4.026,7.357l-17-10.415L52.768,7.288z M20.231,110.83L20.231,110.83c1.616,0,2.918-1.303,2.918-2.916
		c0-1.606-1.302-2.915-2.918-2.915h11.668v5.831H20.231z M29.166,46.666l2.733,52.499H20.231l-2.733-58.333
		c0-6.231,2.431-12.091,6.835-16.498c4.316-4.317,10.029-6.731,16.117-6.83l23.81,14.59l2.824-5.159v107.228H37.733l-2.735-87.497
		H29.166z M102.264,134.162H72.917V122.5c1.609,0,2.916-1.307,2.916-2.919c0-1.611-1.307-2.917-2.916-2.917v-11.665
		c1.609,0,2.916-1.308,2.916-2.918c0-1.611-1.307-2.917-2.916-2.917V87.5c1.609,0,2.916-1.308,2.916-2.918
		c0-1.611-1.307-2.919-2.916-2.919V70c1.609,0,2.916-1.306,2.916-2.918c0-1.611-1.307-2.917-2.916-2.917V52.5
		c1.609,0,2.916-1.305,2.916-2.918c0-1.61-1.307-2.916-2.916-2.916V26.935l2.822,5.16l23.812-14.592
		c6.088,0.099,11.8,2.515,16.115,6.83c4.406,4.407,6.832,10.267,6.832,16.498l-2.733,58.333h-11.666l2.736-52.499h-5.837
		L102.264,134.162z M108.099,104.999h11.666c-1.606,0-2.914,1.309-2.914,2.915c0,1.61,1.304,2.912,2.909,2.916h-11.661V104.999z"/>
</g>
</svg>
