<?xml version="1.0" encoding="utf-8"?>
<!-- Generator: Adobe Illustrator 16.0.0, SVG Export Plug-In . SVG Version: 6.00 Build 0)  -->
<!DOCTYPE svg PUBLIC "-//W3C//DTD SVG 1.1//EN" "http://www.w3.org/Graphics/SVG/1.1/DTD/svg11.dtd">
<svg version="1.1" id="Calque_1" xmlns="http://www.w3.org/2000/svg" xmlns:xlink="http://www.w3.org/1999/xlink" x="0px" y="0px"
	 width="140px" height="140px" viewBox="0 0 140 140" enable-background="new 0 0 140 140" xml:space="preserve">
<g>
	<defs>
		<rect id="SVGID_1_" x="39.041" width="61.918" height="140"/>
	</defs>
	<clipPath id="SVGID_2_">
		<use xlink:href="#SVGID_1_"  overflow="visible"/>
	</clipPath>
	<path clip-path="url(#SVGID_2_)" fill="#006935" d="M100.959,34.195C100.64,6.583,98.377,1.451,98.32,1.232
		C98.128,0.507,97.473,0,96.722,0H43.28c-0.752,0-1.407,0.507-1.599,1.232c-0.06,0.231-1.496,5.944-2.639,32.963
		c-0.002,0.036,2.314,104.186,2.314,104.186c0.019,0.9,0.754,1.619,1.653,1.619h21.947c0.895,0,1.627-0.712,1.651-1.607
		l2.316-82.224c0.076-1.852,0.388-5.93,1.078-9.49c0.688,3.559,1.001,7.632,1.077,9.469l2.313,82.245
		c0.026,0.896,0.759,1.607,1.653,1.607h21.946c0.899,0,1.635-0.719,1.653-1.619C98.645,138.382,100.959,34.231,100.959,34.195
		 M44.647,3.307h11.995v2.998H44.239C44.4,4.938,44.541,3.968,44.647,3.307 M43.89,9.613h4.833c-0.228,3.346-1.168,5.828-2.81,7.381
		c-0.92,0.869-1.916,1.306-2.729,1.527C43.431,14.811,43.671,11.892,43.89,9.613 M68.346,40.636
		c-2.278,4.886-2.711,14.962-2.729,15.419l-2.271,80.637H44.625L42.348,34.281c0.202-4.762,0.412-8.847,0.621-12.347
		c1.371-0.212,3.364-0.818,5.154-2.48c2.342-2.176,3.648-5.485,3.909-9.842h4.611v0.263c0,0.913,0.742,1.654,1.654,1.654
		c0.914,0,1.654-0.741,1.654-1.654V9.613h8.396V40.636z M68.346,6.305h-8.396V3.307h8.396V6.305z M96.921,18.523
		c-0.805-0.217-1.798-0.645-2.708-1.492c-1.669-1.549-2.625-4.042-2.854-7.419h4.995C96.525,11.7,96.709,14.538,96.921,18.523
		 M83.355,3.307h12.097c0.202,0.773,0.383,1.589,0.565,2.998H83.355V3.307z M80.048,3.307v2.998h-5.662
		c0.178-0.081,0.343-0.191,0.483-0.332c0.307-0.306,0.482-0.731,0.482-1.167c0-0.437-0.176-0.863-0.482-1.17
		c-0.141-0.14-0.306-0.248-0.483-0.329H80.048z M71.653,3.307h1.359c-0.179,0.081-0.343,0.189-0.483,0.329
		c-0.307,0.307-0.486,0.733-0.486,1.17c0,0.436,0.18,0.86,0.486,1.167c0.141,0.141,0.305,0.249,0.483,0.332h-1.359V3.307z
		 M73.312,9.613V25.18c0,3.004-0.827,4.481-1.658,5.211V9.613H73.312z M95.375,136.692H76.651l-2.269-80.657
		c-0.021-0.437-0.451-10.513-2.729-15.399v-6.521c0.742-0.242,1.628-0.683,2.458-1.496c1.664-1.625,2.507-4.128,2.507-7.439V9.613
		h3.43v0.263c0,0.914,0.74,1.654,1.653,1.654c0.914,0,1.654-0.74,1.654-1.654V9.613h4.691c0.26,4.358,1.57,7.666,3.912,9.842
		c1.785,1.657,3.767,2.261,5.136,2.477c0.166,3.39,0.35,7.452,0.559,12.352L95.375,136.692z"/>
</g>
</svg>
