<?xml version="1.0" encoding="utf-8"?>
<!-- Generator: Adobe Illustrator 16.0.0, SVG Export Plug-In . SVG Version: 6.00 Build 0)  -->
<!DOCTYPE svg PUBLIC "-//W3C//DTD SVG 1.1//EN" "http://www.w3.org/Graphics/SVG/1.1/DTD/svg11.dtd">
<svg version="1.1" id="Calque_1" xmlns="http://www.w3.org/2000/svg" xmlns:xlink="http://www.w3.org/1999/xlink" x="0px" y="0px"
	 width="140px" height="140px" viewBox="0 0 140 140" enable-background="new 0 0 140 140" xml:space="preserve">
<g>
	<defs>
		<rect id="SVGID_1_" x="0" y="54.433" width="140" height="31.132"/>
	</defs>
	<clipPath id="SVGID_2_">
		<use xlink:href="#SVGID_1_"  overflow="visible"/>
	</clipPath>
	<path clip-path="url(#SVGID_2_)" fill="#006935" d="M41.786,71.559c-0.412,0-0.815-0.164-1.105-0.455
		c-0.291-0.292-0.456-0.693-0.456-1.104c0-0.409,0.165-0.811,0.456-1.105c0.29-0.289,0.693-0.455,1.105-0.455
		c0.408,0,0.811,0.166,1.102,0.455c0.289,0.292,0.458,0.693,0.458,1.105c0,0.411-0.168,0.815-0.458,1.104
		C42.597,71.395,42.194,71.559,41.786,71.559"/>
	<path clip-path="url(#SVGID_2_)" fill="#006935" d="M29.232,71.559c-0.411,0-0.815-0.164-1.104-0.455
		c-0.292-0.289-0.456-0.693-0.456-1.104c0-0.412,0.165-0.813,0.456-1.105c0.289-0.289,0.693-0.455,1.104-0.455
		c0.408,0,0.81,0.166,1.101,0.455c0.29,0.292,0.458,0.693,0.458,1.105c0,0.411-0.168,0.815-0.458,1.104
		C30.042,71.395,29.64,71.559,29.232,71.559"/>
	<path clip-path="url(#SVGID_2_)" fill="#006935" d="M16.678,71.559c-0.413,0-0.815-0.164-1.105-0.455
		c-0.291-0.289-0.456-0.693-0.456-1.104c0-0.412,0.165-0.813,0.456-1.105c0.29-0.289,0.692-0.455,1.105-0.455
		c0.408,0,0.81,0.166,1.101,0.455c0.29,0.292,0.459,0.693,0.459,1.105c0,0.411-0.169,0.815-0.459,1.104
		C17.488,71.395,17.086,71.559,16.678,71.559"/>
	<path clip-path="url(#SVGID_2_)" fill="#006935" d="M66.268,71.559c-0.414,0-0.816-0.164-1.105-0.455
		c-0.291-0.292-0.456-0.693-0.456-1.104c0-0.409,0.165-0.811,0.456-1.105c0.29-0.289,0.692-0.455,1.105-0.455
		c0.408,0,0.81,0.166,1.101,0.455c0.29,0.292,0.458,0.693,0.458,1.105c0,0.411-0.168,0.815-0.458,1.104
		C67.078,71.395,66.675,71.559,66.268,71.559"/>
	<path clip-path="url(#SVGID_2_)" fill="#006935" d="M111.729,71.559c-0.412,0-0.813-0.164-1.104-0.455
		c-0.29-0.289-0.458-0.693-0.458-1.104c0-0.409,0.168-0.811,0.458-1.105c0.291-0.289,0.692-0.455,1.104-0.455
		c0.407,0,0.812,0.166,1.102,0.455c0.29,0.294,0.458,0.696,0.458,1.105c0,0.411-0.168,0.815-0.458,1.104
		C112.54,71.395,112.136,71.559,111.729,71.559"/>
	<path clip-path="url(#SVGID_2_)" fill="#006935" d="M138.441,57.393h-29.122v-1.4c0-0.862-0.697-1.56-1.559-1.56h-9.563
		c-0.86,0-1.559,0.698-1.559,1.56v1.4h-6.045v-1.4c0-0.862-0.7-1.56-1.561-1.56H50.968c-0.86,0-1.56,0.698-1.56,1.56v1.4H1.56
		c-0.859,0-1.559,0.698-1.559,1.56v22.094c0,0.861,0.7,1.559,1.559,1.559h47.848v1.4c0,0.863,0.699,1.559,1.56,1.559h38.065
		c0.86,0,1.561-0.695,1.561-1.559v-1.4h6.045v1.4c0,0.863,0.698,1.559,1.559,1.559h9.563c0.861,0,1.559-0.695,1.559-1.559v-1.4
		h29.122c0.862,0,1.561-0.697,1.561-1.559V58.953C140.002,58.091,139.304,57.393,138.441,57.393 M3.12,60.513h46.289v18.974H3.12
		V60.513z M87.474,68.441h-2.411v-5.485c0-0.862-0.7-1.56-1.56-1.56H56.501c-0.863,0-1.561,0.698-1.561,1.56v14.088
		c0,0.86,0.697,1.56,1.561,1.56h27.001c0.859,0,1.56-0.699,1.56-1.56v-5.486h2.411v10.889H52.528V57.552h34.945V68.441z
		 M78.806,71.56h3.136v3.924H58.061V64.516h23.881v3.923h-3.136c-0.86,0-1.56,0.699-1.56,1.56
		C77.246,70.861,77.945,71.56,78.806,71.56 M96.639,79.487h-6.045V60.513h6.045V79.487z M106.201,82.446h-6.444V57.552h6.444V82.446
		z M120.629,79.487h-11.31V60.513h11.31c3.457,0,6.378,4.345,6.378,9.487C127.007,75.142,124.086,79.487,120.629,79.487
		 M136.881,79.487h-10.008c1.991-2.312,3.254-5.708,3.254-9.487c0-3.779-1.262-7.175-3.252-9.487h10.006V79.487z"/>
</g>
</svg>
