<?xml version="1.0" encoding="utf-8"?>
<!-- Generator: Adobe Illustrator 16.0.0, SVG Export Plug-In . SVG Version: 6.00 Build 0)  -->
<!DOCTYPE svg PUBLIC "-//W3C//DTD SVG 1.1//EN" "http://www.w3.org/Graphics/SVG/1.1/DTD/svg11.dtd">
<svg version="1.1" id="Calque_1" xmlns="http://www.w3.org/2000/svg" xmlns:xlink="http://www.w3.org/1999/xlink" x="0px" y="0px"
	 width="140px" height="140px" viewBox="0 0 140 140" enable-background="new 0 0 140 140" xml:space="preserve">
<g>
	<defs>
		<rect id="SVGID_1_" y="31.169" width="140" height="77.662"/>
	</defs>
	<clipPath id="SVGID_2_">
		<use xlink:href="#SVGID_1_"  overflow="visible"/>
	</clipPath>
	<path clip-path="url(#SVGID_2_)" fill="none" stroke="#006935" stroke-width="2.825" stroke-miterlimit="10" d="M5.96,93.866
		c-4.057-1.66-6.426-5.509-2.622-12.59c3.277-4.327,16.785-22.949,46.029-41.308c2.884-1.705,20.85-8.917,31.08-7.082
		C87.659,33.673,97.1,32.1,123.59,46.656c4.328,2.229,11.016,5.771,12.721,13.245c1.18,6.295,3.277,8.262,1.705,20.196
		c-0.656,4.326,0,10.097-6.296,10.622c-6.295,0.262-18.096-4.196-34.356-0.918c-11.146,2.753-28.458,8.523-53.897,7.867
		C18.812,96.882,14.616,97.406,5.96,93.866z"/>
	<path clip-path="url(#SVGID_2_)" fill="none" stroke="#006935" stroke-width="2.825" stroke-miterlimit="10" d="M130.147,90.587
		c0,0-0.655,9.441-2.099,13.112c-4.852-2.491-15.343-9.311-30.686-13.899"/>
	<path clip-path="url(#SVGID_2_)" fill="none" stroke="#006935" stroke-width="2.825" stroke-miterlimit="10" d="M96.313,89.668
		c0,0-14.03,15.519-38.816,17.07c-24.784,1.552-66.094,1.38-50.882-11.379"/>
	<path clip-path="url(#SVGID_2_)" fill="none" stroke="#006935" stroke-width="2.825" stroke-miterlimit="10" d="M77.298,94.783
		c0,0,14.426-39.603,53.767-43.013"/>
	<path clip-path="url(#SVGID_2_)" fill="none" stroke="#006935" stroke-width="2.825" stroke-miterlimit="10" d="M10.845,95.538
		c0,0-0.51-18.941,33.324-52.25"/>
</g>
</svg>
