<?xml version="1.0" encoding="utf-8"?>
<!-- Generator: Adobe Illustrator 16.0.0, SVG Export Plug-In . SVG Version: 6.00 Build 0)  -->
<!DOCTYPE svg PUBLIC "-//W3C//DTD SVG 1.1//EN" "http://www.w3.org/Graphics/SVG/1.1/DTD/svg11.dtd">
<svg version="1.1" id="Calque_1" xmlns="http://www.w3.org/2000/svg" xmlns:xlink="http://www.w3.org/1999/xlink" x="0px" y="0px"
	 width="140px" height="140px" viewBox="0 0 140 140" enable-background="new 0 0 140 140" xml:space="preserve">
<g>
	<defs>
		<rect id="SVGID_1_" y="44.263" width="140" height="51.475"/>
	</defs>
	<clipPath id="SVGID_2_">
		<use xlink:href="#SVGID_1_"  overflow="visible"/>
	</clipPath>
	<path clip-path="url(#SVGID_2_)" fill="#006935" d="M138.784,75.681c-0.175-0.98-1.175-1.379-2.403-1.869
		c-0.871-0.346-30.354-10.176-31.469-10.53c-1.902-1.002-24.184-12.722-34.239-17.139c-2.876-1.265-5.391-1.879-7.689-1.879
		c-5.874,0-8.918,4.177-11.141,7.227c-1.392,1.913-4.474,2.882-9.164,2.882c-13.447,0-34.471-8.172-34.682-8.257
		c-0.65-0.252-1.345-0.022-1.843,0.471c-1.989,1.973-3.945,8.13-3.948,8.244c-2.545,9.183-1.916,20.616-1.794,22.427
		c-0.263,1.425-1.417,8.837,1.847,14.294c0.294,0.492,0.825,0.792,1.398,0.792h0.008c0.385-0.001,38.635-0.173,47.068,0.702
		c19.084,1.978,34.297,2.692,46.317,2.692c30.249,0,40.266-4.525,40.828-4.793c0.339-0.161,0.613-0.433,0.773-0.773
		C138.771,89.918,141.535,83.928,138.784,75.681 M134.316,76.5c-2.587,1.03-9.783,2.756-29.575,3.586
		c-3.751,0.158-8.316,0.241-13.207,0.241c-5.392,0-16.437-0.114-27.386-0.914c0.091-1.497,0.541-4.028,2.409-5.914
		c2.102-2.121,5.522-2.988,10.169-2.568c16.13,1.45,24.993,0.154,28.274-4.202C114.875,69.885,129.116,74.547,134.316,76.5
		 M7.963,49.591c4.696,1.756,22.355,8.038,34.717,8.038c5.787,0,9.756-1.419,11.796-4.219c2.513-3.449,4.592-5.88,8.508-5.888
		c3.348-0.008,7.139,1.941,7.544,2.122c-2.04,1.299-3.288,3.147-3.374,3.277c-0.495,0.748-0.291,1.754,0.457,2.253
		c0.279,0.184,0.593,0.271,0.902,0.271c0.525,0,1.042-0.254,1.356-0.724c0.023-0.033,2.24-3.293,4.956-3.067
		c1.354,0.647,2.784,1.344,4.257,2.07c-2.145,1.329-3.313,3.316-3.39,3.446c-0.446,0.778-0.179,1.767,0.595,2.218
		c0.258,0.15,0.539,0.22,0.817,0.22c0.561,0,1.107-0.288,1.41-0.806c0.02-0.033,1.855-3.092,4.751-2.997
		c1.459,0.732,2.925,1.471,4.363,2.204c-2.791,1.429-3.98,3.727-4.05,3.863c-0.404,0.803-0.082,1.784,0.724,2.188
		c0.235,0.118,0.484,0.173,0.73,0.173c0.597,0,1.17-0.329,1.457-0.898c0.016-0.029,1.502-2.875,5.371-3.163
		c4.277,2.198,7.952,4.114,9.979,5.177c-2.368,2.102-8.79,3.777-24.825,2.335c-5.679-0.512-9.987,0.683-12.805,3.551
		c-2.548,2.592-3.187,5.888-3.318,7.919c-3.816-0.331-7.553-0.751-10.958-1.288c-3.835-0.607-11.887-1.063-20.315-1.397
		c-0.499-7.17-4.918-13.396-12.857-18.073c-4.283-2.523-8.523-3.982-10.819-4.66C6.49,52.19,7.154,50.778,7.963,49.591
		 M3.598,75.752c-0.138-3.36-0.271-11.819,1.426-18.887c4.959,1.483,20.173,7.026,21.317,19.48
		C16.714,76.002,7.248,75.816,3.598,75.752 M135.92,88.223c-3.613,1.316-25.104,7.778-84.85,1.581
		c-7.94-0.824-40.249-0.746-46.443-0.722c-1.681-3.494-1.44-7.907-1.181-10.072c6.975,0.126,37.576,0.746,45.98,2.074
		c14.295,2.258,34.21,2.501,42.106,2.501c4.936,0,9.549-0.082,13.345-0.241c20.55-0.862,28.349-2.706,31.464-4.188
		C137.234,83.584,136.355,86.95,135.92,88.223"/>
</g>
</svg>
