<?xml version="1.0" encoding="utf-8"?>
<!-- Generator: Adobe Illustrator 16.0.0, SVG Export Plug-In . SVG Version: 6.00 Build 0)  -->
<!DOCTYPE svg PUBLIC "-//W3C//DTD SVG 1.1//EN" "http://www.w3.org/Graphics/SVG/1.1/DTD/svg11.dtd">
<svg version="1.1" id="Calque_1" xmlns="http://www.w3.org/2000/svg" xmlns:xlink="http://www.w3.org/1999/xlink" x="0px" y="0px"
	 width="140px" height="140px" viewBox="0 0 140 140" enable-background="new 0 0 140 140" xml:space="preserve">
<g>
	<defs>
		<rect id="SVGID_1_" x="20.167" width="99.667" height="140"/>
	</defs>
	<clipPath id="SVGID_2_">
		<use xlink:href="#SVGID_1_"  overflow="visible"/>
	</clipPath>
	<path clip-path="url(#SVGID_2_)" fill="#006935" d="M118.864,73.514c-0.497-7.08-1.012-14.4-1.012-20.671
		c0-31.033-7.425-35.372-8.271-35.765l-18.32-7.044c-3.483-5.135-9.328-9.128-10.26-9.745C80.706,0.093,80.371,0,80.041,0.001V0
		H59.959c-0.342,0-0.678,0.1-0.963,0.289c-0.929,0.616-6.774,4.609-10.259,9.745l-18.319,7.044
		c-0.847,0.393-8.273,4.732-8.273,35.765c0,6.271-0.512,13.591-1.009,20.671c-0.499,7.12-0.97,13.846-0.97,19.661
		c0,11.588,0.981,44.785,0.99,45.118c0.016,0.47,0.216,0.912,0.562,1.23c0.324,0.298,0.744,0.461,1.181,0.461
		c0.031,0,15.27-0.787,15.27-0.787c0.926-0.05,1.652-0.813,1.652-1.741v-1.694c5.087,1.518,12.197,3.425,17.675,4.06
		c0.622,0.071,1.21,0.105,1.77,0.105c6.093,0,8.732-3.986,9.287-6.285c0.009-0.036,1.447-8.275,1.447-8.275l1.422,8.159
		c0.412,2.406,2.78,6.475,8.804,6.475c0.725,0,1.506-0.06,2.342-0.187c5.433-0.836,12.533-2.713,17.612-4.166v1.809
		c0,0.928,0.727,1.691,1.652,1.741c0,0,15.239,0.787,15.27,0.787c0.436,0,0.857-0.163,1.181-0.461
		c0.344-0.318,0.547-0.761,0.561-1.23c0.01-0.333,0.99-33.53,0.99-45.118C119.833,87.359,119.362,80.634,118.864,73.514
		 M81.748,27.384c2.079-10.163,2.549-16.394,2.207-20.321c2.877,2.639,5.793,6.051,6.338,9.193l-4.917,1.033
		c-0.678,0.143-1.207,0.672-1.349,1.351c-0.141,0.677,0.133,1.375,0.7,1.777l5.437,3.852c-1.315,5.765-7.765,32.458-17.497,47.633
		C73.858,66.093,80.224,34.829,81.748,27.384 M60.689,3.485H79.31c0.537,0.58,1.224,2.057,1.259,5.793H59.434
		C59.469,5.545,60.153,4.064,60.689,3.485 M51.329,12.456c0.003-0.003,0.005-0.009,0.006-0.013c1.235-1.919,2.98-3.786,4.71-5.375
		c-0.342,3.927,0.13,10.157,2.208,20.316c1.536,7.514,7.901,38.767,9.083,44.528C57.608,56.75,51.154,30.037,49.836,24.269
		l5.437-3.852c0.567-0.402,0.84-1.1,0.699-1.777c-0.141-0.679-0.67-1.208-1.348-1.351l-4.917-1.033
		C49.923,15.011,50.516,13.721,51.329,12.456 M36.336,135.803l-11.748,0.606c-0.204-7.071-0.938-33.25-0.938-43.234
		c0-5.693,0.466-12.36,0.961-19.418c0.502-7.14,1.018-14.521,1.018-20.914c0-19.001,2.801-27.165,4.679-30.505
		c0,0,9.38,34.766,10.473,43.243c-5.714,12.421-3.473,35.063-3.126,38.213c-3.556,13.419-5.452,27.884-5.474,28.044
		c-0.105,0.821,0.381,1.604,1.166,1.871c0.158,0.055,1.268,0.433,2.988,0.979V135.803z M41.9,73.459
		c1.077,10.082,0.067,15.612-1.394,20.678C40.31,88.065,40.453,80.131,41.9,73.459 M67.47,119.588l-2.316,13.279
		c-0.127,0.464-1.345,4.179-7.255,3.493c-7.375-0.854-18.268-4.261-22.062-5.496c0.616-4.286,2.656-17.492,5.963-28.987l13.64-1.077
		c0.958-0.077,1.674-0.916,1.599-1.876c-0.076-0.957-0.915-1.676-1.875-1.6l-12.281,0.973c0.007-0.021,8.365-13.65-2.8-52.27
		l-6.854-26.299l13.281-5.104c-0.286,1.029-0.424,2.078-0.366,3.127c0.044,0.788,0.611,1.446,1.382,1.609l2.478,0.521l-3.126,2.215
		c-0.568,0.402-0.842,1.103-0.697,1.783c0.354,1.667,8.775,40.67,22.665,55.777c0.204,1.334,0.371,2.691,0.502,4.062
		c-0.865-0.671-1.945-1.075-3.121-1.075c-2.814,0-5.103,2.29-5.103,5.104c0,2.812,2.289,5.103,5.103,5.103
		c1.374,0,2.621-0.548,3.54-1.435C70.005,105.812,67.507,119.39,67.47,119.588 M67.846,87.747c0,0.892-0.727,1.618-1.62,1.618
		c-0.891,0-1.618-0.727-1.618-1.618c0-0.894,0.727-1.62,1.618-1.62C67.119,86.127,67.846,86.854,67.846,87.747 M70,67.555
		c-1.052-5.144-6.796-33.354-8.334-40.869c-1.241-6.068-1.865-10.576-2.11-13.922h20.889c-0.246,3.347-0.87,7.854-2.112,13.922
		C76.809,34.131,71.064,62.356,70,67.555 M82.039,136.368c-6.145,0.945-7.096-2.996-7.183-3.435l-2.331-13.368
		c-0.004-0.019-0.345-1.86-0.762-4.853c1.092-7.951,2.575-23.104,0.427-36.234c13.273-15.856,21.292-53.005,21.63-54.6
		c0.146-0.678-0.129-1.381-0.696-1.783l-3.127-2.215l2.478-0.521c0.771-0.162,1.337-0.822,1.382-1.609
		c0.058-1.05-0.08-2.099-0.366-3.127l13.28,5.104l-6.857,26.311c-11.023,37.757-2.804,52.238-2.797,52.258l-12.279-0.973
		c-0.953-0.076-1.799,0.643-1.876,1.602c-0.075,0.958,0.642,1.797,1.602,1.874l13.638,1.079c3.301,11.468,5.339,24.638,5.959,28.956
		C100.313,132.009,89.398,135.237,82.039,136.368 M98.097,73.459c1.448,6.669,1.592,14.602,1.394,20.674
		C98.033,89.067,97.022,83.537,98.097,73.459 M115.411,136.409l-11.745-0.606v-1.177c1.698-0.509,2.794-0.854,2.95-0.905
		c0.804-0.253,1.311-1.048,1.201-1.883c-0.021-0.16-1.916-14.625-5.475-28.044c0.35-3.154,2.589-25.794-3.125-38.215
		c4.125-20.985,10.474-43.241,10.474-43.241c1.88,3.342,4.679,11.505,4.679,30.505c0,6.393,0.518,13.774,1.018,20.914
		c0.495,7.058,0.961,13.725,0.961,19.418C116.348,103.159,115.615,129.338,115.411,136.409"/>
</g>
</svg>
