<?xml version="1.0" encoding="utf-8"?>
<!-- Generator: Adobe Illustrator 16.0.0, SVG Export Plug-In . SVG Version: 6.00 Build 0)  -->
<!DOCTYPE svg PUBLIC "-//W3C//DTD SVG 1.1//EN" "http://www.w3.org/Graphics/SVG/1.1/DTD/svg11.dtd">
<svg version="1.1" id="Calque_1" xmlns="http://www.w3.org/2000/svg" xmlns:xlink="http://www.w3.org/1999/xlink" x="0px" y="0px"
	 width="140px" height="140px" viewBox="0 0 140 140" enable-background="new 0 0 140 140" xml:space="preserve">
<g>
	<defs>
		<rect id="SVGID_1_" x="49.271" width="41.459" height="140"/>
	</defs>
	<clipPath id="SVGID_2_">
		<use xlink:href="#SVGID_1_"  overflow="visible"/>
	</clipPath>
	<path clip-path="url(#SVGID_2_)" fill="#006935" d="M90.246,5.441l-4.958-4.957c-0.334-0.335-0.794-0.513-1.268-0.479
		c-0.471,0.03-0.905,0.261-1.195,0.634l-7.676,9.908H64.852l-7.677-9.908c-0.289-0.373-0.725-0.604-1.197-0.635
		c-0.474-0.033-0.933,0.145-1.266,0.479l-4.959,4.958c-0.335,0.334-0.51,0.796-0.479,1.269c0.029,0.471,0.262,0.906,0.634,1.197
		l12.096,9.362l2.829,6.49L58.624,34.2c-0.135,0.227-0.215,0.486-0.229,0.75l-4.829,87.317c-0.026,0.445,0.131,0.882,0.433,1.209
		l14.79,15.995c0.324,0.352,0.767,0.529,1.208,0.529c0.4,0,0.802-0.144,1.117-0.436c0.034-0.032,14.881-16.089,14.881-16.089
		c0.303-0.327,0.458-0.764,0.435-1.209L81.6,34.95c-0.014-0.265-0.093-0.522-0.227-0.75l-6.21-10.443l2.826-6.482L90.09,7.906
		c0.374-0.29,0.605-0.725,0.637-1.198C90.756,6.237,90.583,5.775,90.246,5.441 M75.897,13.838l-3.658,8.391h-4.483l-3.657-8.391
		H75.897z M55.718,4.131l5.114,6.601c-0.25,0.129-0.465,0.319-0.623,0.559c-0.064,0.097-0.114,0.201-0.156,0.308l-6.652-5.15
		L55.718,4.131z M77.425,34.004l0.911,1.531l0.468,8.441l0.207,3.752l0.579,10.475l0.207,3.752l0.581,10.475l0.208,3.752
		l0.579,10.476l0.208,3.751l0.579,10.475l0.207,3.754l0.578,10.473l0.208,3.755l0.159,2.887l-13.107,14.179l-5.243-5.672
		l-2.274-2.46l-5.589-6.045l0.074-1.337l0.221-4.022l0.622-11.226l0.223-4.022l0.62-11.226l0.221-4.022l0.623-11.226l0.221-4.023
		l0.623-11.225l0.222-4.022l0.622-11.226l0.222-4.021l0.255-4.62l5.955-10.015h4.767l3.361,5.654L77.425,34.004z M79.941,11.602
		c-0.041-0.108-0.091-0.212-0.155-0.311c-0.156-0.239-0.372-0.428-0.618-0.556l5.114-6.604l2.316,2.317L79.941,11.602z"/>
</g>
</svg>
