<?xml version="1.0" encoding="utf-8"?>
<!-- Generator: Adobe Illustrator 16.0.0, SVG Export Plug-In . SVG Version: 6.00 Build 0)  -->
<!DOCTYPE svg PUBLIC "-//W3C//DTD SVG 1.1//EN" "http://www.w3.org/Graphics/SVG/1.1/DTD/svg11.dtd">
<svg version="1.1" id="Calque_1" xmlns="http://www.w3.org/2000/svg" xmlns:xlink="http://www.w3.org/1999/xlink" x="0px" y="0px"
	 width="140px" height="140px" viewBox="0 0 140 140" enable-background="new 0 0 140 140" xml:space="preserve">
<g>
	<defs>
		<rect id="SVGID_1_" x="4.02" width="131.961" height="140"/>
	</defs>
	<clipPath id="SVGID_2_">
		<use xlink:href="#SVGID_1_"  overflow="visible"/>
	</clipPath>
	<path clip-path="url(#SVGID_2_)" fill="#006935" d="M68.648,73.018c7.013-2.733,10.72-7.379,11.021-13.81
		c0.241-5.216-1.768-10.479-3.384-14.707c-0.289-0.757-0.565-1.477-0.801-2.134V1.845C75.485,0.825,74.658,0,73.64,0H41.201
		c-1.019,0-1.845,0.825-1.845,1.846v32.513c0,11.978-5.863,19.709-5.919,19.781C33.426,54.153,7.641,89.146,7.63,89.164
		c-1.824,2.83-3.524,5.993-3.607,9.958c-0.092,4.417,1.543,8.608,4.604,11.798c3.058,3.188,7.177,4.996,11.595,5.089
		c0.119,0.001,8.057,0,13.28-6.23l27.178-30.647C60.718,79.083,64.647,74.577,68.648,73.018 M75.983,59.036
		c-0.332,4.903-3.066,8.358-8.673,10.542c-0.96,0.375-1.901,0.872-2.795,1.429c-4.723-13.864,4.168-22.434,8.213-25.479
		C72.763,45.625,76.353,53.566,75.983,59.036 M43.048,3.69h28.747v4.744H43.048V3.69z M43.048,12.125h28.747v3.963H43.048V12.125z
		 M20.3,112.315c-3.434-0.068-6.633-1.474-9.01-3.951c-2.377-2.479-3.649-5.732-3.577-9.168c0.05-2.447,0.923-4.564,2.273-6.831
		c3.739,1.329,14.616,6.037,18.86,16.931C26.481,111.297,23.48,112.374,20.3,112.315 M71.794,35.842v5.831
		c-0.763,0.513-1.93,1.367-3.242,2.548l-1.448,1.386c-1.09,1.113-2.218,2.431-3.264,3.954c-0.464,0.682-0.905,1.431-1.361,2.216
		c-0.479,0.824-1.505,3.278-1.505,3.278c-1.633,4.381-2.265,9.976-0.113,16.65l0.521,1.637l-0.887,0.747
		c-1.524,1.38-2.517,2.52-2.594,2.611l-13.19,14.875l-2.376,2.679l-10.726,12.097c-0.411-0.887-0.859-1.732-1.338-2.545
		l-2.044-3.021c-5.166-6.695-12.311-10.123-16.062-11.559l10.913-14.804l2.16-2.936l11.128-15.1c0.44-0.575,6.205-8.307,6.65-20.53
		l0.032-3.654V19.779h28.747v12.438V35.842z"/>
	<path clip-path="url(#SVGID_2_)" fill="#006935" d="M124.939,97.011c7.013-2.733,10.72-7.38,11.021-13.812
		c0.241-5.216-1.768-10.478-3.384-14.706c-0.289-0.757-0.565-1.477-0.801-2.134V25.837c0-1.02-0.827-1.845-1.846-1.845H97.492
		c-1.021,0-1.847,0.825-1.847,1.845v32.514c0,11.977-5.862,19.709-5.918,19.781c-0.012,0.014-25.796,35.008-25.807,35.024
		c-1.824,2.83-3.524,5.994-3.607,9.958c-0.092,4.417,1.543,8.609,4.604,11.797c3.058,3.188,7.176,4.996,11.597,5.09
		c0.118,0.001,8.056,0,13.278-6.23l27.177-30.647C117.009,103.076,120.938,98.569,124.939,97.011 M132.273,83.029
		c-0.332,4.901-3.066,8.357-8.673,10.542c-0.961,0.374-1.901,0.871-2.796,1.43c-4.722-13.864,4.168-22.434,8.213-25.481
		C129.053,69.617,132.641,77.559,132.273,83.029 M99.337,27.683h28.747v4.744H99.337V27.683z M99.337,36.118h28.747v3.961H99.337
		V36.118z M76.589,136.309c-3.433-0.068-6.632-1.474-9.009-3.952c-2.377-2.478-3.648-5.732-3.576-9.168
		c0.05-2.447,0.923-4.563,2.273-6.832c3.739,1.331,14.617,6.038,18.859,16.931C82.772,135.29,79.771,136.366,76.589,136.309
		 M128.084,59.835v5.831c-0.764,0.513-1.93,1.366-3.243,2.548l-1.446,1.386c-1.092,1.113-2.22,2.431-3.265,3.954
		c-0.466,0.681-0.905,1.431-1.361,2.215c-0.479,0.825-1.506,3.278-1.506,3.278c-1.634,4.382-2.265,9.976-0.112,16.651l0.521,1.636
		l-0.887,0.747c-1.525,1.381-2.517,2.521-2.595,2.611L101,115.567l-2.375,2.678l-10.726,12.099
		c-0.411-0.889-0.858-1.733-1.337-2.546l-2.045-3.021c-5.168-6.695-12.311-10.124-16.062-11.56l10.911-14.804l2.16-2.936
		l11.129-15.1c0.44-0.574,6.206-8.306,6.651-20.53l0.03-3.654V43.771h28.747v12.438V59.835z"/>
</g>
</svg>
