<?xml version="1.0" encoding="utf-8"?>
<!-- Generator: Adobe Illustrator 16.0.0, SVG Export Plug-In . SVG Version: 6.00 Build 0)  -->
<!DOCTYPE svg PUBLIC "-//W3C//DTD SVG 1.1//EN" "http://www.w3.org/Graphics/SVG/1.1/DTD/svg11.dtd">
<svg version="1.1" id="Calque_1" xmlns="http://www.w3.org/2000/svg" xmlns:xlink="http://www.w3.org/1999/xlink" x="0px" y="0px"
	 width="140px" height="139px" viewBox="0 0 140 139" enable-background="new 0 0 140 139" xml:space="preserve">
<g>
	<defs>
		<rect id="SVGID_1_" x="9.358" y="-0.5" width="121.284" height="140"/>
	</defs>
	<clipPath id="SVGID_2_">
		<use xlink:href="#SVGID_1_"  overflow="visible"/>
	</clipPath>
	<path clip-path="url(#SVGID_2_)" fill="#006935" d="M69.998,3.546h-0.002c-13.896,0-17.612-3.662-17.732-3.742
		c-0.48-0.327-1.09-0.394-1.63-0.18c-0.762,0.301-17.499,6.42-26.026,15.138c-0.269,0.274-4.762,8.297-8.875,26.435
		c-3.766,16.601-7.836,45.296-5.854,87.742v8.807c0,0.968,0.784,1.755,1.753,1.755h15.897c0.848,0,1.573-0.607,1.727-1.441
		l1.6-8.796l3.206-13.526c0.476,1.915,1.016,3.757,1.625,5.508l1.588,9.089c0.147,0.841,0.874,1.453,1.727,1.453h32.68l-0.294-3.508
		H40.474l-0.997-5.712l-0.828-3.507c-1.175-3.608-2.701-11.911-2.708-11.946c-3.059-20.266-0.723-46.133,0.792-62.868
		c0.561-6.186,1.002-11.072,1.002-13.926c0-9.045-5.163-13.359-8.466-15.192c5.809-4.8,16.064-9.453,20.504-11.35l4.743,1.668
		c6.185,2.924,15.479,2.201,15.479,2.201h0.002l-0.002-4.102 M26.066,135.994H13.384v-5.338h7.086h6.566L26.066,135.994z
		 M33.24,43.929c-1.521,16.825-3.866,42.76-0.804,63.455l-4.683,19.767h-7.738h-6.71c-1.775-40.994,2.149-68.765,5.786-84.912
		c3.076-13.655,6.459-21.483,7.868-24.392c2.403,1.128,7.269,4.405,7.269,12.474C34.229,33.018,33.793,37.833,33.24,43.929"/>
	<path clip-path="url(#SVGID_2_)" fill="#006935" d="M69.514,36.752l0.006-1.754l-1.571-0.761c-0.345,0.719-0.102,1.437,0.147,1.743
		c-0.202-0.25-1.327-1.363-2.517-2.54C45.445,13.52,42.732,7.317,42.732,3.877h3.507c0,5.494,16.413,21.734,21.808,27.071
		c0.854,0.846,1.548,1.533,2.023,2.018c0.829,0.844,1.546,1.574,1.081,2.699L69.514,36.752z"/>
	<path clip-path="url(#SVGID_2_)" fill="#006935" d="M69.211,45.821l-0.046-3.507l0.023,1.754l-1.571-0.761
		c-0.337,0.708-0.106,1.412,0.131,1.712c-0.238-0.303-1.658-1.712-3.16-3.204C41.165,18.557,38.006,11.549,38.006,7.762h3.507
		c0,6.199,19.227,25.292,25.544,31.565c1.057,1.049,1.917,1.903,2.509,2.508c1.032,1.056,1.715,1.753,1.258,2.884L69.211,45.821z"/>
	<path clip-path="url(#SVGID_2_)" fill="#006935" d="M70.004,3.546l-0.001,4.102h0.001c0,0,9.274,0.61,15.461-2.313l4.76-1.555
		c4.441,1.897,14.696,6.55,20.505,11.35c-3.303,1.833-8.466,6.146-8.466,15.192c0,2.854,0.441,7.74,1.002,13.926
		c1.516,16.735,3.852,42.603,0.792,62.868c-0.006,0.035-1.532,8.338-2.706,11.946l-0.829,3.507l-0.996,5.712H68.612l-0.292,3.508
		h32.679c0.853,0,1.581-0.612,1.729-1.453l1.587-9.089c0.609-1.751,1.148-3.593,1.625-5.508l3.207,13.526l1.6,8.796
		c0.152,0.834,0.878,1.441,1.727,1.441h15.897c0.97,0,1.753-0.787,1.753-1.755v-8.807c1.981-42.446-2.088-71.142-5.854-87.742
		c-4.113-18.137-8.606-26.161-8.875-26.435C106.865,6.044,90.128-0.075,89.367-0.375c-0.54-0.214-1.151-0.147-1.631,0.18
		C87.616-0.116,83.901,3.546,70.004,3.546L70.004,3.546 M112.963,130.656h6.566h7.086v5.338h-12.682L112.963,130.656z
		 M106.759,43.929c-0.553-6.096-0.988-10.912-0.988-13.609c0-8.069,4.867-11.346,7.27-12.474c1.408,2.909,4.793,10.737,7.868,24.392
		c3.637,16.147,7.562,43.918,5.786,84.912h-6.71h-7.737l-4.684-19.767C110.626,86.689,108.282,60.754,106.759,43.929"/>
	<path clip-path="url(#SVGID_2_)" fill="#006935" d="M70.486,36.752l-1.636-1.088c-0.464-1.125,0.252-1.854,1.081-2.699
		c0.476-0.485,1.169-1.171,2.024-2.018C77.348,25.611,93.76,9.371,93.76,3.877h3.508c0,6.131-11.55,18.385-22.847,29.563
		c-1.191,1.177-2.315,2.291-2.518,2.54c0.25-0.307,0.492-1.024,0.147-1.743L70.48,34.99L70.486,36.752z"/>
	<path clip-path="url(#SVGID_2_)" fill="#006935" d="M70.79,45.821l-1.613-1.102c-0.458-1.131,0.225-1.828,1.258-2.885
		c0.592-0.604,1.452-1.458,2.508-2.508c6.318-6.273,25.545-25.365,25.545-31.564h3.507c0,6.749-13.437,21.002-26.581,34.053
		c-1.502,1.491-2.92,2.9-3.16,3.205c0.237-0.301,0.469-1.005,0.132-1.712l-1.571,0.75L70.79,45.821z"/>
	<path clip-path="url(#SVGID_2_)" fill="#006935" d="M67.64,44.903c0,0,2.24,2.798,4.744,0
		C74.889,42.105,65.076,42.039,67.64,44.903"/>
	<path clip-path="url(#SVGID_2_)" fill="#006935" d="M68.032,26.007c0,0,1.868,2.525,3.957,0
		C74.079,23.482,65.893,23.421,68.032,26.007"/>
	<path clip-path="url(#SVGID_2_)" fill="#006935" d="M67.64,35.464c0,0,2.24,3.108,4.744,0
		C74.889,32.356,65.076,32.281,67.64,35.464"/>
	<path clip-path="url(#SVGID_2_)" fill="#006935" d="M69.616,27.074l0.005-1.387l-1.244-0.602c-0.273,0.569-0.079,1.136,0.117,1.378
		c-0.161-0.197-1.049-1.077-1.991-2.01C50.576,8.696,48.43,3.789,48.43,1.067h2.774c0,4.346,12.983,17.193,17.25,21.416
		c0.675,0.668,1.224,1.211,1.602,1.594c0.654,0.669,1.222,1.246,0.854,2.136L69.616,27.074z"/>
	<path clip-path="url(#SVGID_2_)" fill="#006935" d="M70.385,27.074l-1.295-0.861c-0.367-0.89,0.2-1.467,0.854-2.136
		c0.378-0.383,0.927-0.926,1.603-1.594c4.266-4.223,17.25-17.07,17.25-21.416h2.773c0,4.85-9.136,14.544-18.073,23.386
		c-0.941,0.933-1.831,1.812-1.99,2.01c0.196-0.242,0.39-0.809,0.116-1.378l-1.243,0.594L70.385,27.074z"/>
	<rect x="67.036" y="42.43" clip-path="url(#SVGID_2_)" fill="#006935" width="5.645" height="1.303"/>
</g>
</svg>
