<?xml version="1.0" encoding="utf-8"?>
<!-- Generator: Adobe Illustrator 16.0.0, SVG Export Plug-In . SVG Version: 6.00 Build 0)  -->
<!DOCTYPE svg PUBLIC "-//W3C//DTD SVG 1.1//EN" "http://www.w3.org/Graphics/SVG/1.1/DTD/svg11.dtd">
<svg version="1.1" id="Capa_1" xmlns="http://www.w3.org/2000/svg" xmlns:xlink="http://www.w3.org/1999/xlink" x="0px" y="0px"
	 width="595.279px" height="595.281px" viewBox="123.305 0 595.279 595.281" enable-background="new 123.305 0 595.279 595.281"
	 xml:space="preserve">
<g>
	<g id="calendar_1_">
		<path fill="#010002" d="M668.99,55.807h-80.623V18.602C588.367,8.315,580.052,0,569.765,0s-18.603,8.315-18.603,18.603v37.205
			H439.547V18.602C439.547,8.315,431.213,0,420.945,0s-18.603,8.315-18.603,18.603v37.205H290.727V18.602
			C290.727,8.315,282.394,0,272.124,0c-10.269,0-18.602,8.315-18.602,18.603v37.205h-80.605c-27.401,0-49.612,22.193-49.612,49.595
			v440.266c0,27.401,22.211,49.613,49.612,49.613H668.99c27.401,0,49.594-22.212,49.594-49.613V105.402
			C718.584,78.001,696.392,55.807,668.99,55.807z M681.38,545.668c0,6.846-5.562,12.408-12.39,12.408H172.917
			c-6.846,0-12.407-5.562-12.407-12.408V105.402c0-6.827,5.562-12.39,12.407-12.39h80.605v37.205
			c0,10.287,8.333,18.603,18.602,18.603c10.27,0,18.603-8.315,18.603-18.603V93.012h111.615v37.205
			c0,10.287,8.334,18.603,18.603,18.603s18.603-8.315,18.603-18.603V93.012h111.615v37.205c0,10.287,8.315,18.603,18.603,18.603
			s18.603-8.315,18.603-18.603V93.012h80.623c6.827,0,12.39,5.562,12.39,12.39V545.668z"/>
		<rect x="253.523" y="223.23" fill="#010002" width="74.409" height="55.808"/>
		<rect x="253.523" y="316.243" fill="#010002" width="74.409" height="55.808"/>
		<rect x="253.523" y="409.256" fill="#010002" width="74.409" height="55.808"/>
		<rect x="383.74" y="409.256" fill="#010002" width="74.41" height="55.808"/>
		<rect x="383.74" y="316.243" fill="#010002" width="74.41" height="55.808"/>
		<rect x="383.74" y="223.23" fill="#010002" width="74.41" height="55.808"/>
		<rect x="513.957" y="409.256" fill="#010002" width="74.41" height="55.808"/>
		<rect x="513.957" y="316.243" fill="#010002" width="74.41" height="55.808"/>
		<rect x="513.957" y="223.23" fill="#010002" width="74.41" height="55.808"/>
	</g>
</g>
</svg>
