<?xml version="1.0" encoding="utf-8"?>
<!-- Generator: Adobe Illustrator 16.0.0, SVG Export Plug-In . SVG Version: 6.00 Build 0)  -->
<!DOCTYPE svg PUBLIC "-//W3C//DTD SVG 1.1//EN" "http://www.w3.org/Graphics/SVG/1.1/DTD/svg11.dtd">
<svg version="1.1" id="Calque_1" xmlns="http://www.w3.org/2000/svg" xmlns:xlink="http://www.w3.org/1999/xlink" x="0px" y="0px"
	 width="30.812px" height="7.938px" viewBox="0.562 11.938 30.812 7.938" enable-background="new 0.562 11.938 30.812 7.938"
	 xml:space="preserve">
<path d="M24.102,12.417c-1.246,0-2.474,0-3.719,0c-0.479,0.769-0.934,1.6-1.412,2.39c0,0.021-0.021,0.021-0.043,0.021
	c-0.541,0-1.06,0-1.601,0h-0.021c0.043-0.061,0.082-0.146,0.125-0.208c0.436-0.726,0.852-1.453,1.287-2.182c0,0,0-0.021,0.021-0.021
	c-1.245,0-2.473,0-3.718,0l-0.021,0.021c-0.791,1.349-1.578,2.701-2.369,4.029c-0.043,0.061-0.061,0.125-0.104,0.186
	c0.021,0,0.043,0,0.061,0c2.991,0,6.004-0.021,8.996-0.021c0.043,0,0.043-0.021,0.062-0.043c0.748-1.288,1.517-2.555,2.265-3.843
	c0.063-0.101,0.128-0.226,0.188-0.33L24.102,12.417z"/>
<path d="M8.604,14.617c0.061,0,0.125,0,0.186,0.021c0.104,0.021,0.146,0.104,0.104,0.208c-0.021,0.082-0.061,0.146-0.104,0.229
	c-0.229,0.394-0.458,0.791-0.687,1.163c-0.021,0.043-0.043,0.082-0.061,0.125c-0.043,0.125,0,0.208,0.104,0.229
	c0.082,0.021,0.146,0.043,0.229,0.043c0.955,0,1.932,0,2.888,0c0.043,0,0.043-0.021,0.061-0.043c0.269-0.458,0.54-0.913,0.809-1.371
	c0.082-0.125,0.146-0.25,0.165-0.394c0.146-0.665,0-1.227-0.415-1.725c-0.311-0.376-0.726-0.562-1.184-0.644
	c-0.061,0-0.125-0.021-0.186-0.021c-2.555,0-5.11,0-7.665,0c0,0.043-0.021,0.021-0.021,0.043c-0.376,0.644-0.769,1.309-1.142,1.954
	c-0.043,0.061-0.082,0.146-0.125,0.208c0.021,0,0.043,0,0.061,0C3.953,14.618,6.279,14.618,8.604,14.617L8.604,14.617z"/>
<path d="M22.835,16.652c0.021,0,0.043,0,0.043,0c1.288,0,2.576-0.021,3.864-0.021c0.021,0,0.043-0.021,0.061-0.043
	c0.623-1.038,1.227-2.097,1.85-3.138c0.209-0.354,0.416-0.705,0.623-1.038c-1.309,0-2.637,0-3.946,0
	c0,0.043-0.021,0.021-0.021,0.043c-0.791,1.349-1.578,2.701-2.369,4.029C22.896,16.531,22.857,16.592,22.835,16.652z"/>
<path d="M10.994,17.154c-0.021,0-0.043,0-0.061,0c-1.413,0-2.845,0-4.258,0c-0.043,0-0.082,0-0.125,0
	c-0.061-0.021-0.125-0.021-0.186-0.043c-0.061-0.022-0.104-0.104-0.061-0.165c0.021-0.062,0.061-0.146,0.082-0.208
	c0.229-0.372,0.436-0.748,0.665-1.143c0.043-0.061,0.082-0.146,0.104-0.229c0.043-0.104,0-0.186-0.104-0.208
	c-0.061,0-0.125,0-0.208,0c-1.059,0-2.097,0-3.156,0c-0.043,0-0.061,0.021-0.082,0.043C2.807,16.548,2.02,17.9,1.208,19.271
	c-0.061,0.104-0.104,0.186-0.165,0.289c0.021,0,0.043,0,0.061,0c2.097,0,4.219,0,6.316,0c0.165,0,0.333-0.021,0.497-0.043
	c0.562-0.082,1.059-0.289,1.538-0.623c0.498-0.354,0.913-0.791,1.267-1.287c0.085-0.144,0.189-0.291,0.272-0.455c0,0.021,0,0,0,0
	V17.154z"/>
<path d="M30.896,17.154c-2.431,0-4.863,0-7.293,0c-0.354,0-0.705,0-1.059,0c-0.043,0-0.043,0.021-0.061,0.043
	c-0.125,0.229-0.25,0.436-0.375,0.665c-0.043,0.061-0.082,0.146-0.104,0.229c-0.104,0.312-0.104,0.601,0.062,0.873
	c0.125,0.187,0.289,0.312,0.479,0.415c0.311,0.146,0.623,0.186,0.955,0.186c1.993,0,4.008,0,6.004,0
	c0.043,0,0.043-0.021,0.061-0.043c0.395-0.664,0.791-1.33,1.164-1.992c0.061-0.125,0.146-0.25,0.229-0.375
	C30.936,17.154,30.914,17.154,30.896,17.154z"/>
<path d="M12.239,17.175c-0.021,0-0.043,0-0.061,0.043c-0.458,0.769-0.913,1.538-1.371,2.326c0,0.021-0.021,0-0.021,0.043
	c0.021,0,0.021,0,0.043,0c1.206,0,2.43,0,3.636,0c0.021,0,0.043,0,0.061-0.043c0.415-0.705,0.852-1.435,1.267-2.14
	c0.043-0.062,0.082-0.146,0.125-0.208c-0.021,0-0.021,0-0.043,0C14.669,17.175,13.467,17.175,12.239,17.175z"/>
<path d="M17.621,17.154c-0.021,0-0.043,0.021-0.061,0.043c-0.459,0.769-0.914,1.537-1.372,2.326c0,0.021-0.021,0-0.021,0.043
	c0.021,0,0.021,0,0.043,0c1.227,0,2.43,0,3.657,0c0.021,0,0.043,0,0.062-0.043c0.436-0.728,0.873-1.475,1.287-2.201
	c0.021-0.043,0.061-0.104,0.104-0.165c-0.021,0-0.043,0-0.043,0C20.051,17.154,18.846,17.154,17.621,17.154z"/>
</svg>
