<?xml version="1.0" encoding="utf-8"?>
<!-- Generator: Adobe Illustrator 16.0.0, SVG Export Plug-In . SVG Version: 6.00 Build 0)  -->
<!DOCTYPE svg PUBLIC "-//W3C//DTD SVG 1.1//EN" "http://www.w3.org/Graphics/SVG/1.1/DTD/svg11.dtd">
<svg version="1.1" id="Calque_1" xmlns="http://www.w3.org/2000/svg" xmlns:xlink="http://www.w3.org/1999/xlink" x="0px" y="0px"
	 width="20px" height="20px" viewBox="0 0 20 20" enable-background="new 0 0 20 20" xml:space="preserve">
<path d="M19.638,13.042c-0.783-0.7-1.135-1.305-1.048-1.797c0.018-0.099-0.017-0.198-0.091-0.265s-0.178-0.09-0.273-0.062
	c-0.015,0.005-1.534,0.438-1.791-0.42c-0.22-0.731,1.396-1.564,1.979-1.798c0.084-0.033,0.146-0.105,0.171-0.192
	c0.023-0.087,0.004-0.18-0.051-0.252c-0.104-0.131-0.371-0.58-0.261-0.906c0.075-0.215,0.315-0.377,0.718-0.479
	c0.115-0.029,0.2-0.125,0.215-0.243c0.012-0.094-0.022-0.221-0.155-0.293c-0.098-0.053-0.59-0.342-0.712-0.812
	c-0.072-0.28-0.002-0.591,0.211-0.924c0.077-0.121,0.053-0.282-0.056-0.375c-0.11-0.093-0.271-0.091-0.378,0.005
	c-0.138,0.113-1.272,0.602-2.177,0.473c-0.359-0.051-0.61-0.188-0.771-0.421c-0.059-0.084-0.156-0.131-0.259-0.124
	c-0.169,0.013-0.226,0.132-0.275,0.238c-0.269,0.557-0.812,1.519-1.433,1.713c-0.196,0.062-0.388,0.038-0.583-0.073
	c-0.134-0.076-0.208-0.177-0.233-0.318c-0.109-0.605,0.631-1.655,0.926-2.009c0.078-0.093,0.089-0.224,0.028-0.329
	c-0.061-0.104-0.18-0.16-0.299-0.139c-0.233,0.041-0.793,0.055-0.932-0.172c-0.322-0.532,0.267-1.184,0.271-1.19
	c0.071-0.076,0.095-0.184,0.063-0.283C12.411,1.495,12.33,1.421,12.228,1.4c-0.015-0.003-1.44-0.306-1.96-1.095
	c-0.002-0.002-0.003-0.005-0.005-0.007c-0.004-0.007-0.009-0.014-0.015-0.02c-0.001-0.003-0.004-0.005-0.006-0.008
	c-0.006-0.007-0.012-0.014-0.018-0.02c-0.002-0.002-0.006-0.003-0.007-0.005c-0.008-0.006-0.014-0.013-0.021-0.019
	c-0.002-0.002-0.004-0.003-0.007-0.004c-0.007-0.006-0.016-0.012-0.023-0.016c-0.003-0.001-0.006-0.003-0.009-0.004
	c-0.008-0.004-0.017-0.009-0.024-0.012c-0.004-0.001-0.008-0.002-0.012-0.003c-0.008-0.003-0.016-0.006-0.023-0.009
	c-0.005-0.001-0.01-0.001-0.014-0.002c-0.008-0.002-0.016-0.004-0.024-0.005c-0.006,0-0.012,0-0.018-0.001
	c-0.007,0-0.014-0.001-0.021-0.001l0,0c-0.041,0-0.078,0.009-0.113,0.023C9.906,0.19,9.904,0.191,9.902,0.192
	C9.894,0.197,9.884,0.201,9.875,0.206C9.871,0.208,9.866,0.212,9.863,0.215C9.856,0.219,9.851,0.222,9.844,0.227
	C9.839,0.231,9.835,0.235,9.83,0.24C9.826,0.243,9.821,0.248,9.817,0.251c-0.005,0.005-0.01,0.01-0.014,0.016
	C9.8,0.271,9.796,0.275,9.792,0.279C9.788,0.285,9.785,0.291,9.781,0.297C9.778,0.3,9.776,0.304,9.773,0.308
	C9.254,1.094,7.83,1.396,7.816,1.4C7.714,1.42,7.632,1.494,7.6,1.594C7.568,1.693,7.592,1.801,7.663,1.877
	c0.006,0.006,0.596,0.653,0.271,1.19C7.796,3.295,7.247,3.281,7.003,3.239C6.884,3.218,6.765,3.274,6.704,3.378
	C6.644,3.483,6.655,3.614,6.732,3.707C6.735,3.71,7.011,4.042,7.263,4.47C7.569,4.991,7.71,5.433,7.658,5.715
	c-0.026,0.142-0.1,0.243-0.233,0.319c-0.195,0.11-0.386,0.134-0.583,0.073C6.22,5.913,5.678,4.95,5.41,4.394
	C5.359,4.289,5.302,4.169,5.134,4.156C5.032,4.148,4.934,4.195,4.875,4.28C4.715,4.513,4.463,4.65,4.104,4.701
	C3.199,4.83,2.065,4.34,1.929,4.229C1.822,4.133,1.66,4.13,1.55,4.224C1.441,4.316,1.416,4.476,1.493,4.598
	c0.212,0.333,0.283,0.644,0.21,0.924C1.583,5.992,1.09,6.281,0.993,6.334C0.86,6.407,0.825,6.533,0.837,6.627
	c0.014,0.117,0.1,0.213,0.215,0.243c0.401,0.102,0.642,0.263,0.716,0.478C1.88,7.672,1.619,8.113,1.509,8.255
	C1.454,8.327,1.435,8.42,1.458,8.507c0.023,0.087,0.087,0.158,0.171,0.192c0.583,0.234,2.199,1.067,1.979,1.799
	c-0.257,0.856-1.776,0.425-1.791,0.42c-0.096-0.028-0.199-0.005-0.273,0.062c-0.074,0.065-0.109,0.166-0.091,0.265
	c0.088,0.492-0.265,1.097-1.047,1.796c-0.115,0.103-0.197,0.176-0.184,0.326c0.008,0.09,0.059,0.172,0.136,0.22
	c0.854,0.528,1.423,1.179,1.691,1.931c0.01,0.029,0.018,0.051,0.024,0.065c0.069,0.168,0.216,0.208,0.32,0.192
	c0.485-0.074,0.856,0.006,1.104,0.236c0.469,0.436,0.408,1.288,0.407,1.296c-0.01,0.124,0.06,0.24,0.174,0.289
	c0.037,0.015,0.075,0.023,0.113,0.023c0.081,0,0.16-0.035,0.216-0.099c0.004-0.004,0.385-0.434,0.958-0.719
	c0.73-0.363,1.414-0.314,2.03,0.146c0.072,0.055,0.167,0.071,0.253,0.046c0.142-0.042,0.181-0.148,0.219-0.251
	c0.395-1.06,1.035-2.009,1.866-2.777v5.514c0,0.159,0.129,0.288,0.288,0.288c0.159,0,0.288-0.129,0.288-0.288v-5.514
	c0.832,0.769,1.473,1.766,1.867,2.824c0.038,0.104,0.077,0.21,0.219,0.252c0.087,0.024,0.182,0.008,0.254-0.045
	c0.612-0.458,1.29-0.557,2.015-0.2c0.575,0.282,0.968,0.721,0.972,0.725c0.056,0.063,0.135,0.098,0.216,0.098
	c0.038,0,0.075-0.008,0.112-0.022c0.114-0.049,0.185-0.165,0.175-0.288c-0.001-0.009-0.062-0.86,0.406-1.297
	c0.248-0.23,0.62-0.311,1.104-0.236c0.104,0.016,0.251-0.024,0.321-0.191c0.006-0.016,0.014-0.037,0.023-0.066
	c0.269-0.752,0.837-1.402,1.692-1.931c0.076-0.048,0.127-0.129,0.135-0.22C19.835,13.217,19.752,13.144,19.638,13.042z M16.674,6.79
	l-0.307,0.321C16.311,7.17,16.235,7.2,16.159,7.2c-0.071,0-0.143-0.026-0.198-0.08c-0.115-0.11-0.12-0.292-0.01-0.407l0.307-0.32
	c0.109-0.116,0.291-0.12,0.407-0.01C16.779,6.493,16.783,6.675,16.674,6.79z M10.31,3.522V3.83c0,0.159-0.129,0.288-0.288,0.288
	c-0.158,0-0.288-0.129-0.288-0.288V3.522c0-0.159,0.129-0.288,0.288-0.288C10.181,3.235,10.31,3.364,10.31,3.522z M2.676,13.343
	c0-0.159,0.128-0.288,0.288-0.288h0.307c0.158,0,0.288,0.129,0.288,0.288c0,0.158-0.129,0.287-0.288,0.287H2.964
	C2.805,13.63,2.676,13.501,2.676,13.343z M9.25,13.63H7.686l-1.144,1.144c-0.056,0.056-0.129,0.085-0.203,0.085
	s-0.147-0.029-0.203-0.085c-0.113-0.112-0.113-0.294,0-0.407l0.736-0.736H4.498c-0.159,0-0.288-0.129-0.288-0.287
	c0-0.159,0.129-0.288,0.288-0.288h1.146l-0.429-0.43c-0.112-0.112-0.112-0.294,0-0.406s0.294-0.112,0.407,0l0.837,0.836H9.35
	l-2.087-2.187H7.26H6.339c-0.159,0-0.288-0.129-0.288-0.288c0-0.158,0.129-0.287,0.288-0.287h0.374L3.37,6.79
	C3.26,6.675,3.264,6.493,3.379,6.383c0.115-0.11,0.297-0.106,0.407,0.01l2.266,2.374V8.125c0-0.159,0.128-0.288,0.288-0.288
	c0.158,0,0.288,0.129,0.288,0.288v1.228c0,0.005,0,0.011-0.001,0.016l3.107,3.255V9.472l-1.45-1.45
	c-0.113-0.112-0.113-0.295,0-0.407c0.112-0.112,0.294-0.112,0.407,0l1.043,1.043V5.057c0-0.159,0.129-0.288,0.288-0.288
	c0.159,0,0.288,0.129,0.288,0.288v1.146l0.123-0.123c0.112-0.112,0.295-0.112,0.406,0c0.112,0.113,0.112,0.294,0,0.407l-0.529,0.53
	v5.604l2.495-2.621c-0.001-0.011-0.002-0.022-0.002-0.034V8.433c0-0.159,0.129-0.288,0.287-0.288c0.159,0,0.288,0.129,0.288,0.288
	V9.4l1.675-1.758c0.108-0.115,0.291-0.12,0.406-0.01c0.115,0.11,0.119,0.292,0.011,0.407l-2.731,2.868h0.967
	c0.158,0,0.287,0.128,0.287,0.287s-0.129,0.288-0.287,0.288H12.19l-1.497,1.572h3.812l0.836-0.836c0.112-0.112,0.295-0.112,0.407,0
	s0.112,0.294,0,0.406l-0.43,0.43h1.146c0.159,0,0.288,0.129,0.288,0.288c0,0.158-0.129,0.287-0.288,0.287h-2.681l0.736,0.736
	c0.112,0.113,0.112,0.295,0,0.407c-0.056,0.056-0.13,0.085-0.203,0.085s-0.148-0.029-0.204-0.085l-1.142-1.096h-2.178
	C10.55,13.052,9.504,13.058,9.25,13.63z"/>
</svg>
