<?xml version="1.0" encoding="utf-8"?>
<!-- Generator: Adobe Illustrator 16.0.0, SVG Export Plug-In . SVG Version: 6.00 Build 0)  -->
<!DOCTYPE svg PUBLIC "-//W3C//DTD SVG 1.1//EN" "http://www.w3.org/Graphics/SVG/1.1/DTD/svg11.dtd">
<svg version="1.1" id="Calque_1" xmlns="http://www.w3.org/2000/svg" xmlns:xlink="http://www.w3.org/1999/xlink" x="0px" y="0px"
	 width="20px" height="20px" viewBox="0 0 20 20" enable-background="new 0 0 20 20" xml:space="preserve">
<g>
	<path d="M0.854,4.584C0.37,5.071,0.125,5.652,0.125,6.331v9.2c0,0.678,0.244,1.26,0.729,1.747c0.487,0.485,1.07,0.729,1.748,0.729
		H3.31V3.854H2.602C1.924,3.854,1.342,4.098,0.854,4.584L0.854,4.584z M0.854,4.584"/>
	<path d="M14.279,2.085c0-0.294-0.105-0.545-0.311-0.752c-0.207-0.206-0.457-0.309-0.752-0.309H6.848
		c-0.295,0-0.546,0.103-0.752,0.309C5.89,1.539,5.787,1.791,5.787,2.085v1.769H4.371v14.153h11.323V3.854h-1.414V2.085z
		 M12.863,3.854H7.202V2.439h5.662V3.854z M12.863,3.854"/>
	<path d="M19.209,4.584c-0.486-0.487-1.068-0.73-1.747-0.73h-0.707v14.153h0.707c0.679,0,1.261-0.244,1.747-0.729
		c0.486-0.487,0.73-1.069,0.73-1.747v-9.2C19.939,5.652,19.695,5.071,19.209,4.584L19.209,4.584z M19.209,4.584"/>
</g>
</svg>
