<?xml version="1.0" encoding="utf-8"?>
<!-- Generator: Adobe Illustrator 16.0.0, SVG Export Plug-In . SVG Version: 6.00 Build 0)  -->
<!DOCTYPE svg PUBLIC "-//W3C//DTD SVG 1.1//EN" "http://www.w3.org/Graphics/SVG/1.1/DTD/svg11.dtd">
<svg version="1.1" id="Calque_1" xmlns="http://www.w3.org/2000/svg" xmlns:xlink="http://www.w3.org/1999/xlink" x="0px" y="0px"
	 width="5.795px" height="25px" viewBox="0 0 5.795 25" enable-background="new 0 0 5.795 25" xml:space="preserve">
<g>
	<defs>
		<rect id="SVGID_1_" width="5.794" height="25"/>
	</defs>
	<clipPath id="SVGID_2_">
		<use xlink:href="#SVGID_1_"  overflow="visible"/>
	</clipPath>
	<path clip-path="url(#SVGID_2_)" fill="#002242" d="M3.535,2.698c0.452,0,0.753-0.301,0.753-0.753c0-0.452-0.301-0.753-0.753-0.753
		H1.276v1.506H3.535z"/>
	<path clip-path="url(#SVGID_2_)" fill="#002242" d="M5.041,5.71c0.452,0,0.753-0.301,0.753-0.753c0-0.452-0.301-0.753-0.753-0.753
		H1.276V5.71H5.041z"/>
	<path clip-path="url(#SVGID_2_)" fill="#002242" d="M3.535,8.723c0.452,0,0.753-0.301,0.753-0.753S3.987,7.217,3.535,7.217H1.276
		v1.506H3.535z"/>
	<path clip-path="url(#SVGID_2_)" fill="#002242" d="M5.041,11.735c0.452,0,0.753-0.301,0.753-0.753s-0.301-0.753-0.753-0.753H1.276
		v1.506H5.041z"/>
	<path clip-path="url(#SVGID_2_)" fill="#002242" d="M3.535,14.747c0.452,0,0.753-0.302,0.753-0.753
		c0-0.452-0.301-0.753-0.753-0.753H1.276v1.506H3.535z"/>
	<path clip-path="url(#SVGID_2_)" fill="#002242" d="M5.041,17.759c0.452,0,0.753-0.301,0.753-0.753
		c0-0.451-0.301-0.753-0.753-0.753H1.276v1.506H5.041z"/>
	<path clip-path="url(#SVGID_2_)" fill="#002242" d="M3.535,20.771c0.452,0,0.753-0.302,0.753-0.753
		c0-0.452-0.301-0.753-0.753-0.753H1.276v1.506H3.535z"/>
	<path clip-path="url(#SVGID_2_)" fill="#002242" d="M5.041,23.783c0.452,0,0.753-0.301,0.753-0.753
		c0-0.451-0.301-0.753-0.753-0.753H1.276v1.506H5.041z"/>
	<path clip-path="url(#SVGID_2_)" fill="#002242" d="M1.15,25H0.326C0.146,25,0,24.854,0,24.673V0.327C0,0.146,0.146,0,0.326,0H1.15
		c0.181,0,0.327,0.146,0.327,0.327v24.346C1.478,24.854,1.332,25,1.15,25"/>
</g>
</svg>
