<?xml version="1.0" encoding="utf-8"?>
<!-- Generator: Adobe Illustrator 16.0.0, SVG Export Plug-In . SVG Version: 6.00 Build 0)  -->
<!DOCTYPE svg PUBLIC "-//W3C//DTD SVG 1.1//EN" "http://www.w3.org/Graphics/SVG/1.1/DTD/svg11.dtd">
<svg version="1.1" id="Capa_1" xmlns="http://www.w3.org/2000/svg" xmlns:xlink="http://www.w3.org/1999/xlink" x="0px" y="0px"
	 width="464.647px" height="407.666px" viewBox="212.178 56.14 464.647 407.666"
	 enable-background="new 212.178 56.14 464.647 407.666" xml:space="preserve">
<g>
	<g id="Layer_5_66_">
		<g>
			<path d="M666.246,207.414c6.474,4.068,11.204,1.166,10.512-6.447L665.933,81.728c-0.692-7.614-7.116-11.65-14.276-8.971
				l-112.13,41.973c-7.159,2.682-7.724,8.201-1.251,12.27l20.791,13.062c6.473,4.068,8.332,12.621,4.126,19.007l-84.744,128.714
				c-4.202,6.387-13.492,9.395-20.645,6.687l-131.71-49.871c-7.15-2.708-16.985-0.1-21.854,5.794l-82.713,100.136
				c-4.869,5.895-8.887,16.972-8.926,24.615l-0.424,81.78c-0.037,7.646,4.005,9.153,8.983,3.354l106.524-124.072
				c4.982-5.8,14.907-8.33,22.054-5.62l132.688,50.284c7.147,2.709,16.463-0.28,20.703-6.644l118.761-178.276
				c4.237-6.364,13.001-8.239,19.475-4.173L666.246,207.414z"/>
		</g>
	</g>
</g>
</svg>
