<?xml version="1.0" encoding="utf-8"?>
<!-- Generator: Adobe Illustrator 16.0.0, SVG Export Plug-In . SVG Version: 6.00 Build 0)  -->
<!DOCTYPE svg PUBLIC "-//W3C//DTD SVG 1.1//EN" "http://www.w3.org/Graphics/SVG/1.1/DTD/svg11.dtd">
<svg version="1.1" id="Calque_1" xmlns="http://www.w3.org/2000/svg" xmlns:xlink="http://www.w3.org/1999/xlink" x="0px" y="0px"
	 width="25px" height="25px" viewBox="0 0 25 25" enable-background="new 0 0 25 25" xml:space="preserve">
<g>
	<path d="M24.113,22.523H22.09v-5.607h-1.759v5.607H4.67v-5.607H2.91v5.607H0.886c-0.485,0-0.879,0.394-0.879,0.88v0.717
		C0.007,24.606,0.4,25,0.886,25h23.228c0.486,0,0.88-0.394,0.88-0.88v-0.717C24.993,22.917,24.6,22.523,24.113,22.523z"/>
	<path d="M24.113,1.246H0.886c-0.485,0-0.879,0.394-0.879,0.88V10.5c0,1.513,0.893,2.82,2.178,3.425
		c0.065,0.029,0.13,0.059,0.193,0.084c0.002,0.001,0.004,0.002,0.005,0.002c0.033,0.014,0.064,0.025,0.097,0.037
		c0.14,0.053,0.175,0.07,0.431,0.132c0.373,0.09,1.382,0.094,1.76,0c0.271-0.067,0.386-0.108,0.57-0.185
		c0.011-0.006,0.021-0.01,0.033-0.016c0.553-0.236,1.039-0.6,1.42-1.056c0.694,0.831,1.738,1.36,2.903,1.36s2.208-0.529,2.903-1.36
		c0.694,0.831,1.738,1.36,2.903,1.36s2.209-0.529,2.903-1.36c0.343,0.41,0.771,0.746,1.258,0.982
		c0.906,0.383,1.651,0.511,2.525,0.274V14.18c0.01-0.002,0.02-0.005,0.029-0.008c0.186-0.052,0.377-0.118,0.576-0.204v0.01
		c1.351-0.578,2.298-1.918,2.298-3.478V2.126C24.993,1.64,24.6,1.246,24.113,1.246z"/>
</g>
</svg>
