<?xml version="1.0" encoding="utf-8"?>
<!-- Generator: Adobe Illustrator 16.0.0, SVG Export Plug-In . SVG Version: 6.00 Build 0)  -->
<!DOCTYPE svg PUBLIC "-//W3C//DTD SVG 1.1//EN" "http://www.w3.org/Graphics/SVG/1.1/DTD/svg11.dtd">
<svg version="1.1" id="Calque_1" xmlns="http://www.w3.org/2000/svg" xmlns:xlink="http://www.w3.org/1999/xlink" x="0px" y="0px"
	 width="100px" height="100px" viewBox="0 0 100 100" enable-background="new 0 0 100 100" xml:space="preserve">
<g>
	<path d="M99.956,42.143c0-3.716-2.366-6.866-5.677-8.052V7.333L43.925,24.937c-0.495-0.306-1.065-0.486-1.691-0.486H11.673
		c-1.796,0-3.249,1.452-3.249,3.248v6.166c-4.688,0.95-8.212,5.09-8.212,10.06c0,4.96,3.524,9.107,8.212,10.059v4.276
		c0,1.796,1.453,3.249,3.249,3.249h8.424v22.982c0,4.482,3.638,8.113,8.12,8.113h0.875c4.49,0,8.12-3.631,8.12-8.113V61.507h5.022
		c0.73,0,1.394-0.25,1.94-0.654l50.105,17.52V50.191C97.59,49.014,99.956,45.855,99.956,42.143L99.956,42.143z M34.123,84.489
		c0,2.771-2.253,5.023-5.03,5.023h-0.875c-2.77,0-5.03-2.253-5.03-5.023V61.767h10.936V84.489z M3.302,43.923
		c0-3.241,2.161-5.99,5.122-6.88v13.75C5.462,49.912,3.302,47.165,3.302,43.923L3.302,43.923z M45.483,58.038v-30.34
		c0-0.006,0-0.022,0-0.037l45.706-15.974v62.332L45.483,58.038z M94.279,46.791"/>
</g>
</svg>
