<?xml version="1.0" encoding="utf-8"?>
<!-- Generator: Adobe Illustrator 16.0.0, SVG Export Plug-In . SVG Version: 6.00 Build 0)  -->
<!DOCTYPE svg PUBLIC "-//W3C//DTD SVG 1.1//EN" "http://www.w3.org/Graphics/SVG/1.1/DTD/svg11.dtd">
<svg version="1.1" id="Calque_1" xmlns="http://www.w3.org/2000/svg" xmlns:xlink="http://www.w3.org/1999/xlink" x="0px" y="0px"
	 width="22.309px" height="25px" viewBox="0 0 22.309 25" enable-background="new 0 0 22.309 25" xml:space="preserve">
<g>
	<path d="M9.562,1.636c0-0.881,0.712-1.594,1.593-1.594c0.879,0,1.591,0.712,1.591,1.594v10.961c0,0.878-0.712,1.59-1.591,1.59
		c-0.881,0-1.593-0.712-1.593-1.59V1.636z M11.155,24.896C5.002,24.896,0,19.891,0,13.74c0-3.99,2.155-7.703,5.627-9.688
		c0.762-0.435,1.736-0.171,2.171,0.591c0.437,0.764,0.171,1.736-0.591,2.173c-2.482,1.42-4.023,4.073-4.023,6.923
		c0,4.396,3.576,7.971,7.972,7.971c4.395,0,7.973-3.574,7.973-7.971c0-2.85-1.545-5.503-4.026-6.923
		c-0.761-0.438-1.029-1.409-0.59-2.173c0.437-0.762,1.408-1.028,2.17-0.591c3.472,1.984,5.627,5.697,5.627,9.688
		C22.309,19.891,17.306,24.896,11.155,24.896L11.155,24.896z M11.155,24.896"/>
</g>
</svg>
