<?xml version="1.0" encoding="utf-8"?>
<!-- Generator: Adobe Illustrator 16.0.0, SVG Export Plug-In . SVG Version: 6.00 Build 0)  -->
<!DOCTYPE svg PUBLIC "-//W3C//DTD SVG 1.1//EN" "http://www.w3.org/Graphics/SVG/1.1/DTD/svg11.dtd">
<svg version="1.1" id="Calque_1" xmlns="http://www.w3.org/2000/svg" xmlns:xlink="http://www.w3.org/1999/xlink" x="0px" y="0px"
	 width="44px" height="42px" viewBox="0 0 44 42" enable-background="new 0 0 44 42" xml:space="preserve">
<g>
	<defs>
		<rect id="SVGID_1_" width="43.92" height="42"/>
	</defs>
	<clipPath id="SVGID_2_">
		<use xlink:href="#SVGID_1_"  overflow="visible"/>
	</clipPath>
	<path clip-path="url(#SVGID_2_)" d="M0.898,25.603h42.204h0.016c0.441,0,0.797-0.36,0.797-0.802c0-0.164-0.047-0.312-0.129-0.441
		L34.027,0.496C33.902,0.195,33.609,0,33.285,0h-22.57c-0.324,0-0.617,0.195-0.742,0.496l-9.813,24
		c-0.101,0.246-0.074,0.527,0.074,0.75C0.383,25.469,0.633,25.603,0.898,25.603 M11.25,1.602h21.496L41.906,24H2.09L11.25,1.602z"/>
	<path clip-path="url(#SVGID_2_)" d="M0.801,29.602h42.398c0.441,0,0.801-0.359,0.801-0.801S43.641,28,43.199,28H0.801
		C0.359,28,0,28.359,0,28.801S0.359,29.602,0.801,29.602"/>
</g>
<g>
	<defs>
		<rect id="SVGID_3_" width="44" height="42"/>
	</defs>
	<clipPath id="SVGID_4_">
		<use xlink:href="#SVGID_3_"  overflow="visible"/>
	</clipPath>
	<path clip-path="url(#SVGID_4_)" d="M12.801,6.398h17.598c0.445,0,0.801-0.355,0.801-0.796c0-0.442-0.355-0.801-0.801-0.801H12.801
		C12.359,4.801,12,5.16,12,5.602C12,6.043,12.359,6.398,12.801,6.398"/>
	<path clip-path="url(#SVGID_4_)" d="M11.199,10.398H32c0.441,0,0.801-0.355,0.801-0.796c0-0.442-0.359-0.801-0.801-0.801H11.199
		c-0.441,0-0.801,0.359-0.801,0.801C10.398,10.043,10.758,10.398,11.199,10.398"/>
	<path clip-path="url(#SVGID_4_)" d="M33.602,12.801h-24c-0.445,0-0.801,0.359-0.801,0.801c0,0.441,0.356,0.796,0.801,0.796h24
		c0.441,0,0.797-0.355,0.797-0.796C34.398,13.16,34.043,12.801,33.602,12.801"/>
	<path clip-path="url(#SVGID_4_)" d="M0.801,33.602h42.398c0.441,0,0.801-0.359,0.801-0.801S43.641,32,43.199,32H0.801
		C0.359,32,0,32.359,0,32.801S0.359,33.602,0.801,33.602"/>
	<path clip-path="url(#SVGID_4_)" d="M0.801,37.602h42.398c0.441,0,0.801-0.359,0.801-0.801S43.641,36,43.199,36H0.801
		C0.359,36,0,36.359,0,36.801S0.359,37.602,0.801,37.602"/>
	<path clip-path="url(#SVGID_4_)" d="M0.801,41.602h42.398c0.441,0,0.801-0.359,0.801-0.801S43.641,40,43.199,40H0.801
		C0.359,40,0,40.359,0,40.801S0.359,41.602,0.801,41.602"/>
</g>
</svg>
