<?xml version="1.0" encoding="utf-8"?>
<!-- Generator: Adobe Illustrator 16.0.0, SVG Export Plug-In . SVG Version: 6.00 Build 0)  -->
<!DOCTYPE svg PUBLIC "-//W3C//DTD SVG 1.1//EN" "http://www.w3.org/Graphics/SVG/1.1/DTD/svg11.dtd">
<svg version="1.1" id="Calque_1" xmlns="http://www.w3.org/2000/svg" xmlns:xlink="http://www.w3.org/1999/xlink" x="0px" y="0px"
	 width="35.199px" height="35.199px" viewBox="0 0 35.199 35.199" enable-background="new 0 0 35.199 35.199" xml:space="preserve">
<g>
	<path d="M17.602,0C7.84,0,0,7.84,0,17.602c0,9.758,7.84,17.598,17.602,17.598c9.758,0,17.597-7.84,17.597-17.598
		C35.198,7.84,27.359,0,17.602,0 M27.762,12.078L14.961,25.359c-0.16,0.16-0.32,0.242-0.563,0.242c-0.238,0-0.476-0.082-0.558-0.242
		l-6.238-6.719l-0.161-0.16C7.282,18.32,7.2,18.078,7.2,17.922c0-0.16,0.082-0.403,0.241-0.563l1.118-1.121
		c0.32-0.316,0.8-0.316,1.121,0l0.082,0.082l4.398,4.719c0.16,0.16,0.399,0.16,0.559,0L25.441,9.922h0.078
		c0.32-0.32,0.801-0.32,1.121,0l1.121,1.117C28.078,11.281,28.078,11.762,27.762,12.078"/>
</g>
</svg>
