<?xml version="1.0" encoding="utf-8"?>
<!-- Generator: Adobe Illustrator 16.0.0, SVG Export Plug-In . SVG Version: 6.00 Build 0)  -->
<!DOCTYPE svg PUBLIC "-//W3C//DTD SVG 1.1//EN" "http://www.w3.org/Graphics/SVG/1.1/DTD/svg11.dtd">
<svg version="1.1" id="Mode_Isolation" xmlns="http://www.w3.org/2000/svg" xmlns:xlink="http://www.w3.org/1999/xlink" x="0px"
	 y="0px" width="20px" height="20px" viewBox="0 0 20 20" enable-background="new 0 0 20 20" xml:space="preserve">
<g>
	<path d="M10,4.196c-3.104,0-5.63,2.526-5.63,5.631c0,3.104,2.526,5.63,5.63,5.63s5.631-2.526,5.631-5.63
		C15.631,6.722,13.104,4.196,10,4.196L10,4.196z M10,4.196"/>
	<path d="M11.999,1.838L10.614,0.12c-0.315-0.393-0.914-0.392-1.229,0L8.001,1.838c-0.274,0.34-0.22,0.836,0.119,1.11
		c0.34,0.273,0.836,0.22,1.11-0.12L10,1.874l0.769,0.955c0.274,0.339,0.771,0.393,1.111,0.12
		C12.219,2.674,12.271,2.178,11.999,1.838L11.999,1.838z M11.999,1.838"/>
	<path d="M11.88,16.704c-0.341-0.273-0.837-0.22-1.109,0.12L10,17.779l-0.769-0.955c-0.274-0.34-0.771-0.394-1.11-0.12
		c-0.339,0.273-0.393,0.771-0.119,1.11l1.384,1.718c0.316,0.393,0.913,0.392,1.229,0l1.385-1.718
		C12.272,17.476,12.219,16.978,11.88,16.704L11.88,16.704z M11.88,16.704"/>
	<path d="M5.765,2.765L3.572,2.529c-0.5-0.054-0.924,0.368-0.87,0.869l0.236,2.193c0.047,0.434,0.436,0.747,0.87,0.7
		c0.434-0.046,0.747-0.436,0.7-0.869L4.376,4.203l1.22,0.131c0.433,0.046,0.823-0.267,0.869-0.701S6.199,2.812,5.765,2.765
		L5.765,2.765z M5.765,2.765"/>
	<path d="M17.298,16.255l-0.236-2.193c-0.046-0.434-0.436-0.748-0.868-0.7c-0.434,0.046-0.748,0.436-0.7,0.869l0.13,1.219
		l-1.218-0.131c-0.435-0.047-0.824,0.267-0.87,0.701c-0.047,0.432,0.267,0.822,0.7,0.868c2.368,0.256,2.217,0.241,2.278,0.241
		C16.981,17.129,17.349,16.723,17.298,16.255L17.298,16.255z M17.298,16.255"/>
	<path d="M3.002,10.597l-0.955-0.77l0.955-0.77c0.339-0.274,0.393-0.771,0.119-1.11c-0.273-0.339-0.77-0.393-1.11-0.119L0.294,9.212
		c-0.393,0.316-0.392,0.913,0,1.229l1.718,1.385c0.34,0.273,0.836,0.22,1.11-0.119C3.396,11.367,3.342,10.869,3.002,10.597
		L3.002,10.597z M3.002,10.597"/>
	<path d="M19.706,9.212l-1.718-1.384c-0.341-0.274-0.837-0.22-1.11,0.119c-0.273,0.34-0.22,0.837,0.12,1.11l0.955,0.769
		l-0.955,0.769c-0.34,0.274-0.394,0.771-0.12,1.111c0.273,0.339,0.771,0.393,1.11,0.119l1.718-1.385
		C20.099,10.124,20.098,9.527,19.706,9.212L19.706,9.212z M19.706,9.212"/>
	<path d="M6.465,16.02c-0.046-0.434-0.435-0.747-0.869-0.7l-1.219,0.13l0.131-1.219c0.046-0.434-0.267-0.823-0.701-0.869
		c-0.434-0.047-0.823,0.268-0.87,0.7l-0.236,2.193c-0.05,0.468,0.316,0.874,0.785,0.874c0.028,0,0.056-0.002,0.085-0.005
		l2.193-0.236C6.199,16.842,6.512,16.451,6.465,16.02L6.465,16.02z M6.465,16.02"/>
	<path d="M16.43,2.528l-2.194,0.236c-0.434,0.047-0.747,0.436-0.7,0.87c0.046,0.434,0.436,0.747,0.87,0.7l1.218-0.131l-0.131,1.22
		c-0.05,0.465,0.313,0.874,0.786,0.874c0.397,0,0.74-0.3,0.783-0.705l0.236-2.193C17.353,2.896,16.927,2.474,16.43,2.528
		L16.43,2.528z M16.43,2.528"/>
</g>
</svg>
