<?xml version="1.0" encoding="utf-8"?>
<!-- Generator: Adobe Illustrator 16.0.0, SVG Export Plug-In . SVG Version: 6.00 Build 0)  -->
<!DOCTYPE svg PUBLIC "-//W3C//DTD SVG 1.1//EN" "http://www.w3.org/Graphics/SVG/1.1/DTD/svg11.dtd">
<svg version="1.1" id="Mode_Isolation" xmlns="http://www.w3.org/2000/svg" xmlns:xlink="http://www.w3.org/1999/xlink" x="0px"
	 y="0px" width="290px" height="20.873px" viewBox="-132.5 2.063 290 20.873" enable-background="new -132.5 2.063 290 20.873"
	 xml:space="preserve">
<path fill="#FFFFFF" d="M-127.319,2.955h2.794c3.414,0,4.501,2.175,4.501,4.168c0,2.854-1.782,4.562-5.453,4.562h-1.842V2.955
	L-127.319,2.955z M-124.933,22.393v-0.68h-2.386v-9.545h0.136l7.839,10.225h4.908v-0.68h-1.495l-7.355-9.545
	c4.425-0.272,6.736-2.19,6.736-5.045c0-2.537-1.767-4.863-7.008-4.863h-8.941v0.695h1.843v18.758h-1.843v0.68H-124.933
	L-124.933,22.393L-124.933,22.393z"/>
<path fill="#FFFFFF" d="M-99.755,5.205L-99.755,5.205l2.99,8.458h-6.071L-99.755,5.205z M-102.836,22.393v-0.68h-2.991l2.658-7.431
	h6.54l2.522,7.431h-2.25v0.68h6.887v-0.68h-1.223l-6.751-19.649h-1.979l-7.159,19.649h-1.782v0.68H-102.836z"/>
<path fill="#FFFFFF" d="M-76.239,21.713h4.576c2.039,0,2.658-0.348,4.501-7.431h0.755v8.035h-14.877v-0.68h1.843V2.955h-1.843V2.26
	h8.186v0.695h-3.066L-76.239,21.713L-76.239,21.713z"/>
<path fill="#FFFFFF" d="M-51.545,2.955h3.142c3.202,0,4.561,1.843,4.561,4.562c0,3.474-1.495,4.44-4.833,4.44h-2.93L-51.545,2.955
	L-51.545,2.955z M-48.751,22.393v-0.68h-2.854v-9.152h3.686c5.105,0,7.491-2.039,7.491-5.105c0-3.081-2.658-5.196-7.491-5.196
	h-8.881v0.695h1.842v18.758h-1.842v0.68H-48.751L-48.751,22.393z"/>
<polygon fill="#FFFFFF" points="-26.867,12.228 -26.867,21.713 -24.873,21.713 -24.873,22.393 -32.107,22.393 -32.107,21.713 
	-30.189,21.713 -30.189,2.955 -32.107,2.955 -32.107,2.26 -24.873,2.26 -24.873,2.955 -26.867,2.955 -26.867,11.685 -18.741,11.685 
	-18.741,2.955 -20.795,2.955 -20.795,2.26 -13.561,2.26 -13.561,2.955 -15.388,2.955 -15.388,21.713 -13.561,21.713 -13.561,22.393 
	-20.795,22.393 -20.795,21.713 -18.741,21.713 -18.741,12.228 "/>
<path fill="#FFFFFF" d="M19.652,21.713h4.576c2.039,0,2.658-0.348,4.501-7.431h0.739v8.035H14.607v-0.68h1.843V2.955h-1.843V2.26
	h8.186v0.695h-3.141V21.713L19.652,21.713z"/>
<path fill="#FFFFFF" d="M45.448,5.205L45.448,5.205l2.991,8.458h-6.072L45.448,5.205z M42.367,22.393v-0.68h-2.93l2.658-7.431h6.555
	l2.507,7.431h-2.235v0.68h6.827v-0.68H54.45L47.684,2.063h-1.963l-7.159,19.649h-1.843v0.68H42.367z"/>
<path fill="#FFFFFF" d="M70.883,2.26v0.695h-2.175v14.59c0,3.549,2.175,4.651,4.077,4.651c2.931,0,5.045-1.843,5.045-4.863V3.015
	H74.9v-0.68h5.527v0.68h-1.843v14.393c0,3.338-2.386,5.528-6.011,5.528c-5.045,0-7.28-1.979-7.28-5.996V3.015h-1.842v-0.68
	L70.883,2.26L70.883,2.26z"/>
<path fill="#FFFFFF" d="M94.202,2.955h2.81c3.398,0,4.501,2.175,4.501,4.168c0,2.854-1.782,4.562-5.468,4.562h-1.782L94.202,2.955
	L94.202,2.955z M96.589,22.393v-0.68h-2.326v-9.545h0.151l7.838,10.225h4.909v-0.68h-1.571l-7.37-9.545
	c4.44-0.272,6.767-2.19,6.767-5.045c0-2.537-1.782-4.863-7.038-4.863h-8.927v0.695h1.843v18.758h-1.843v0.68H96.589L96.589,22.393
	L96.589,22.393z"/>
<path fill="#FFFFFF" d="M114.26,22.393v-0.68h1.843V2.955h-1.843V2.26h15.677v6.495h-0.664c-1.722-5.467-2.19-5.8-3.625-5.8h-6.071
	v8.73h2.386c1.571,0,2.251-0.891,2.931-4.018h0.694v8.654h-0.694c-0.68-3.142-1.359-4.033-2.931-4.033h-2.386v9.424h5.467
	c2.175,0,2.854-0.755,4.622-6.767h0.755v7.446H114.26L114.26,22.393z"/>
<polygon fill="#FFFFFF" points="142.503,3.499 142.428,3.499 142.428,21.713 145.01,21.713 145.01,22.393 139.558,22.393 
	139.558,21.713 141.597,21.713 141.597,2.955 139.558,2.955 139.558,2.26 145.493,2.26 154.495,16.789 154.556,16.789 
	154.556,2.955 152.108,2.955 152.108,2.26 157.5,2.26 157.5,2.955 155.462,2.955 155.462,22.393 154.359,22.393 "/>
</svg>
